<?xml version="1.0" encoding="UTF-8"?>
<svg width="375" height="812" viewBox="0 0 375 812" fill="none" xmlns="http://www.w3.org/2000/svg">
<rect width="375" height="812" fill="#393FD0"/>
<path opacity="0.523324" fill-rule="evenodd" clip-rule="evenodd" d="M203.777 505.777H153.903L131.826 461.275H181.352L203.777 505.777ZM8.29937 460.913L-14.4608 505.777H-64L69.8955 238L159.275 416.732H109.038L69.8955 338.069L30.3757 416.732L8.29937 460.913Z" fill="#3B2059"/>
<path opacity="0.57" fill-rule="evenodd" clip-rule="evenodd" d="M239.469 -52V119.956L48 -52V20.5237L287.314 235.176V234.832V234.458V-52H239.469Z" fill="#3B2059"/>
<path opacity="0.458277" fill-rule="evenodd" clip-rule="evenodd" d="M436.47 468.857C421.11 468.857 406.995 465.977 393.279 460.611C380.011 454.866 368.371 447.047 358.424 436.759C348.046 426.867 340.158 415.361 334.346 402.192C328.518 388.612 325.612 374.621 325.612 359.395C325.612 344.153 328.518 330.178 334.346 316.581C340.158 303.413 348.046 291.907 358.424 282.014C368.371 271.726 380.011 263.908 393.279 258.163C406.995 252.813 421.11 249.916 436.47 249.916C466.343 249.916 492.497 260.204 514.499 281.619L553.953 243.332C538.577 228.123 520.743 216.172 500.816 207.531C500.567 207.432 500.301 207.366 500.069 207.251L500.799 206.773C480.889 198.132 459.286 194 436.47 194C413.621 194 392.05 198.527 372.107 207.168C351.765 215.81 334.363 227.744 318.97 242.558C304.656 257.159 293.098 273.685 284.48 292.779C284.098 293.602 283.633 294.36 283.268 295.183C282.022 298.096 281.043 301.092 279.947 304.055C273.52 321.519 270 339.593 270 358.621C270 358.753 270.017 358.885 270.017 359.016C270.017 359.132 270 359.263 270 359.395C270 382.028 274.567 403.41 283.268 423.591C292.002 443.344 304.025 460.611 318.97 475.442C334.346 490.651 351.782 502.173 372.107 510.832C392.034 519.473 413.637 524 436.47 524C459.302 524 480.889 519.868 500.816 511.243C520.743 502.601 538.577 490.651 553.953 475.442L514.499 437.154C492.497 458.57 466.343 468.857 436.47 468.857Z" fill="#3B2059"/>
</svg>
