<?xml version="1.0" encoding="UTF-8"?>
<svg width="375" height="812" viewBox="0 0 375 812" fill="none" xmlns="http://www.w3.org/2000/svg">
<g clip-path="url(#clip0)">
<rect width="375" height="812" fill="white"/>
<rect width="375" height="812" fill="#393FD0"/>
<path opacity="0.523324" fill-rule="evenodd" clip-rule="evenodd" d="M203.777 505.777H153.903L131.826 461.275H181.352L203.777 505.777ZM8.29937 460.913L-14.4608 505.777H-64L69.8955 238L159.275 416.732H109.038L69.8955 338.069L30.3757 416.732L8.29937 460.913Z" fill="#3B2059"/>
<path opacity="0.57" fill-rule="evenodd" clip-rule="evenodd" d="M239.469 -52V119.956L48 -52V20.5237L287.314 235.176V234.832V234.458V-52H239.469Z" fill="#3B2059"/>
<path opacity="0.458277" fill-rule="evenodd" clip-rule="evenodd" d="M436.47 468.857C421.11 468.857 406.995 465.977 393.279 460.611C380.011 454.866 368.371 447.047 358.424 436.759C348.046 426.867 340.158 415.361 334.346 402.192C328.518 388.612 325.612 374.621 325.612 359.395C325.612 344.153 328.518 330.178 334.346 316.581C340.158 303.413 348.046 291.907 358.424 282.014C368.371 271.726 380.011 263.908 393.279 258.163C406.995 252.813 421.11 249.916 436.47 249.916C466.343 249.916 492.497 260.204 514.499 281.619L553.953 243.332C538.577 228.123 520.743 216.172 500.816 207.531C500.567 207.432 500.301 207.366 500.069 207.251L500.799 206.773C480.889 198.132 459.286 194 436.47 194C413.621 194 392.05 198.527 372.107 207.168C351.765 215.81 334.363 227.744 318.97 242.558C304.656 257.159 293.098 273.685 284.48 292.779C284.098 293.602 283.633 294.36 283.268 295.183C282.022 298.096 281.043 301.092 279.947 304.055C273.52 321.519 270 339.593 270 358.621C270 358.753 270.017 358.885 270.017 359.016C270.017 359.132 270 359.263 270 359.395C270 382.028 274.567 403.41 283.268 423.591C292.002 443.344 304.025 460.611 318.97 475.442C334.346 490.651 351.782 502.173 372.107 510.832C392.034 519.473 413.637 524 436.47 524C459.302 524 480.889 519.868 500.816 511.243C520.743 502.601 538.577 490.651 553.953 475.442L514.499 437.154C492.497 458.57 466.343 468.857 436.47 468.857Z" fill="#3B2059"/>
<g filter="url(#filter0_d)">
<path opacity="0.9" d="M24 338H351V773C351 776.314 348.314 779 345 779H30C26.6863 779 24 776.314 24 773V338Z" fill="#3A3061"/>
<path opacity="0.35" fill-rule="evenodd" clip-rule="evenodd" d="M24 284C24 280.686 26.6863 278 30 278H182.675C185.258 278 187.551 279.653 188.368 282.103L207 338H24V284Z" fill="#3A3061"/>
<path d="M73.8512 314.3V301.06C73.8512 300.833 73.9512 300.667 74.1513 300.56C74.3646 300.44 74.6179 300.38 74.9113 300.38C75.2046 300.38 75.4513 300.44 75.6513 300.56C75.8646 300.667 75.9713 300.833 75.9713 301.06V314.3C75.9713 314.513 75.8646 314.687 75.6513 314.82C75.4513 314.94 75.2046 315 74.9113 315C74.6313 315 74.3846 314.94 74.1713 314.82C73.9579 314.687 73.8512 314.513 73.8512 314.3ZM78.6169 314.3V301.08C78.6169 300.613 78.9702 300.38 79.6769 300.38C80.0502 300.38 80.3502 300.467 80.5769 300.64C80.8035 300.8 81.0369 301.113 81.2769 301.58L85.7169 310.24V301.06C85.7169 300.833 85.8169 300.667 86.0169 300.56C86.2302 300.44 86.4835 300.38 86.7769 300.38C87.0702 300.38 87.3169 300.44 87.5169 300.56C87.7302 300.667 87.8369 300.833 87.8369 301.06V314.3C87.8369 314.513 87.7302 314.687 87.5169 314.82C87.3169 314.94 87.0702 315 86.7769 315C86.2169 315 85.7969 314.74 85.5169 314.22L80.7369 305.12V314.3C80.7369 314.513 80.6302 314.687 80.4169 314.82C80.2169 314.94 79.9702 315 79.6769 315C79.3969 315 79.1502 314.94 78.9369 314.82C78.7235 314.687 78.6169 314.513 78.6169 314.3ZM90.3323 310.66V304.84C90.3323 303.307 90.739 302.18 91.5523 301.46C92.3657 300.74 93.4323 300.38 94.7523 300.38C96.099 300.38 97.1923 300.72 98.0323 301.4C98.8857 302.067 99.3123 302.96 99.3123 304.08C99.3123 304.467 99.2257 304.733 99.0523 304.88C98.8923 305.027 98.6257 305.1 98.2523 305.1C97.559 305.1 97.2057 304.867 97.1923 304.4C97.0457 302.973 96.2523 302.26 94.8123 302.26C93.239 302.26 92.4523 303.12 92.4523 304.84V310.66C92.4523 312.38 93.239 313.24 94.8123 313.24C95.5723 313.24 96.159 313.027 96.5723 312.6C96.9857 312.173 97.1923 311.527 97.1923 310.66V309.02H95.1723C94.959 309.02 94.7923 308.94 94.6723 308.78C94.5523 308.607 94.4923 308.4 94.4923 308.16C94.4923 307.947 94.5523 307.753 94.6723 307.58C94.7923 307.407 94.959 307.32 95.1723 307.32H98.6123C98.8257 307.32 98.9923 307.393 99.1123 307.54C99.2457 307.673 99.3123 307.84 99.3123 308.04V310.66C99.3123 312.193 98.899 313.32 98.0723 314.04C97.259 314.76 96.1723 315.12 94.8123 315.12C93.4523 315.12 92.3657 314.76 91.5523 314.04C90.739 313.32 90.3323 312.193 90.3323 310.66ZM101.586 314.3V301.06C101.586 300.873 101.652 300.713 101.786 300.58C101.919 300.447 102.086 300.38 102.286 300.38H106.086C109.152 300.38 110.686 301.74 110.686 304.46C110.686 305.593 110.432 306.487 109.926 307.14C109.419 307.78 108.732 308.207 107.866 308.42L110.666 313.68C110.719 313.773 110.746 313.873 110.746 313.98C110.746 314.247 110.606 314.493 110.326 314.72C110.059 314.947 109.772 315.06 109.466 315.06C109.119 315.06 108.839 314.853 108.626 314.44L105.706 308.72H103.686V314.3C103.686 314.513 103.579 314.687 103.366 314.82C103.166 314.94 102.919 315 102.626 315C102.346 315 102.099 314.94 101.886 314.82C101.686 314.687 101.586 314.513 101.586 314.3ZM103.686 307.02H106.086C107.739 307.02 108.566 306.227 108.566 304.64C108.566 303.053 107.739 302.26 106.086 302.26H103.686V307.02ZM112.757 314.3V301.08C112.757 300.867 112.851 300.7 113.038 300.58C113.224 300.447 113.444 300.38 113.698 300.38H120.818C121.044 300.38 121.218 300.473 121.338 300.66C121.458 300.847 121.518 301.06 121.518 301.3C121.518 301.567 121.451 301.793 121.318 301.98C121.198 302.167 121.031 302.26 120.818 302.26H114.878V306.84H117.958C118.171 306.84 118.338 306.927 118.458 307.1C118.591 307.26 118.658 307.46 118.658 307.7C118.658 307.913 118.598 308.107 118.478 308.28C118.358 308.44 118.184 308.52 117.958 308.52H114.878V313.12H120.818C121.031 313.12 121.198 313.213 121.318 313.4C121.451 313.587 121.518 313.813 121.518 314.08C121.518 314.32 121.458 314.533 121.338 314.72C121.218 314.907 121.044 315 120.818 315H113.698C113.444 315 113.224 314.94 113.038 314.82C112.851 314.687 112.757 314.513 112.757 314.3ZM122.486 312.8C122.486 312.547 122.58 312.293 122.766 312.04C122.953 311.787 123.166 311.66 123.406 311.66C123.553 311.66 123.726 311.747 123.926 311.92C124.14 312.08 124.346 312.26 124.546 312.46C124.746 312.647 125.046 312.827 125.446 313C125.86 313.16 126.32 313.24 126.826 313.24C127.586 313.24 128.193 313.06 128.646 312.7C129.113 312.34 129.346 311.813 129.346 311.12C129.346 310.48 129.12 309.947 128.666 309.52C128.226 309.093 127.686 308.753 127.046 308.5C126.42 308.247 125.786 307.973 125.146 307.68C124.506 307.387 123.96 306.947 123.506 306.36C123.066 305.773 122.846 305.04 122.846 304.16C122.846 303.453 122.98 302.84 123.246 302.32C123.526 301.8 123.9 301.4 124.366 301.12C124.833 300.84 125.32 300.64 125.826 300.52C126.346 300.387 126.893 300.32 127.466 300.32C127.826 300.32 128.2 300.347 128.586 300.4C128.986 300.44 129.38 300.513 129.766 300.62C130.153 300.727 130.473 300.88 130.726 301.08C130.98 301.28 131.106 301.507 131.106 301.76C131.106 302.013 131.026 302.267 130.866 302.52C130.706 302.773 130.493 302.9 130.226 302.9C130.093 302.9 129.913 302.84 129.686 302.72C129.46 302.587 129.153 302.46 128.766 302.34C128.393 302.207 127.96 302.14 127.466 302.14C126.706 302.14 126.1 302.293 125.646 302.6C125.193 302.893 124.966 303.347 124.966 303.96C124.966 304.36 125.086 304.707 125.326 305C125.566 305.28 125.873 305.513 126.246 305.7C126.633 305.887 127.06 306.073 127.526 306.26C127.993 306.433 128.453 306.64 128.906 306.88C129.373 307.12 129.793 307.4 130.166 307.72C130.553 308.027 130.866 308.453 131.106 309C131.346 309.547 131.466 310.18 131.466 310.9C131.466 312.287 131.046 313.347 130.206 314.08C129.38 314.8 128.28 315.16 126.906 315.16C125.68 315.16 124.633 314.907 123.766 314.4C122.913 313.88 122.486 313.347 122.486 312.8ZM133.321 310.66V304.84C133.321 303.307 133.727 302.18 134.541 301.46C135.354 300.74 136.441 300.38 137.801 300.38C139.161 300.38 140.247 300.74 141.061 301.46C141.887 302.18 142.301 303.307 142.301 304.84V310.66C142.301 312.193 141.887 313.32 141.061 314.04C140.247 314.76 139.161 315.12 137.801 315.12C136.441 315.12 135.354 314.76 134.541 314.04C133.727 313.32 133.321 312.193 133.321 310.66ZM135.441 310.66C135.441 312.38 136.227 313.24 137.801 313.24C138.561 313.24 139.147 313.027 139.561 312.6C139.974 312.173 140.181 311.527 140.181 310.66V304.84C140.181 303.973 139.974 303.327 139.561 302.9C139.147 302.473 138.561 302.26 137.801 302.26C136.227 302.26 135.441 303.12 135.441 304.84V310.66Z" fill="white"/>
<path opacity="0.9" d="M194.164 283.014C194.647 280.12 197.15 278 200.083 278H345.043C348.356 278 351.043 280.686 351.043 284V338H185L194.164 283.014Z" fill="#3A3061"/>
<path d="M236.569 314.3V301.06C236.569 300.873 236.635 300.713 236.769 300.58C236.902 300.447 237.069 300.38 237.269 300.38H241.069C244.135 300.38 245.669 301.74 245.669 304.46C245.669 305.593 245.415 306.487 244.909 307.14C244.402 307.78 243.715 308.207 242.849 308.42L245.649 313.68C245.702 313.773 245.729 313.873 245.729 313.98C245.729 314.247 245.589 314.493 245.309 314.72C245.042 314.947 244.755 315.06 244.449 315.06C244.102 315.06 243.822 314.853 243.609 314.44L240.689 308.72H238.669V314.3C238.669 314.513 238.562 314.687 238.349 314.82C238.149 314.94 237.902 315 237.609 315C237.329 315 237.082 314.94 236.869 314.82C236.669 314.687 236.569 314.513 236.569 314.3ZM238.669 307.02H241.069C242.722 307.02 243.549 306.227 243.549 304.64C243.549 303.053 242.722 302.26 241.069 302.26H238.669V307.02ZM247.741 314.3V301.08C247.741 300.867 247.834 300.7 248.021 300.58C248.207 300.447 248.427 300.38 248.681 300.38H255.801C256.027 300.38 256.201 300.473 256.321 300.66C256.441 300.847 256.501 301.06 256.501 301.3C256.501 301.567 256.434 301.793 256.301 301.98C256.181 302.167 256.014 302.26 255.801 302.26H249.861V306.84H252.941C253.154 306.84 253.321 306.927 253.441 307.1C253.574 307.26 253.641 307.46 253.641 307.7C253.641 307.913 253.581 308.107 253.461 308.28C253.341 308.44 253.167 308.52 252.941 308.52H249.861V313.12H255.801C256.014 313.12 256.181 313.213 256.301 313.4C256.434 313.587 256.501 313.813 256.501 314.08C256.501 314.32 256.441 314.533 256.321 314.72C256.201 314.907 256.027 315 255.801 315H248.681C248.427 315 248.207 314.94 248.021 314.82C247.834 314.687 247.741 314.513 247.741 314.3ZM257.893 310.66V304.84C257.893 303.307 258.3 302.18 259.113 301.46C259.927 300.74 260.993 300.38 262.313 300.38C263.66 300.38 264.753 300.72 265.593 301.4C266.447 302.067 266.873 302.96 266.873 304.08C266.873 304.467 266.787 304.733 266.613 304.88C266.453 305.027 266.187 305.1 265.813 305.1C265.12 305.1 264.767 304.867 264.753 304.4C264.607 302.973 263.813 302.26 262.373 302.26C260.8 302.26 260.013 303.12 260.013 304.84V310.66C260.013 312.38 260.8 313.24 262.373 313.24C263.133 313.24 263.72 313.027 264.133 312.6C264.547 312.173 264.753 311.527 264.753 310.66V309.02H262.733C262.52 309.02 262.353 308.94 262.233 308.78C262.113 308.607 262.053 308.4 262.053 308.16C262.053 307.947 262.113 307.753 262.233 307.58C262.353 307.407 262.52 307.32 262.733 307.32H266.173C266.387 307.32 266.553 307.393 266.673 307.54C266.807 307.673 266.873 307.84 266.873 308.04V310.66C266.873 312.193 266.46 313.32 265.633 314.04C264.82 314.76 263.733 315.12 262.373 315.12C261.013 315.12 259.927 314.76 259.113 314.04C258.3 313.32 257.893 312.193 257.893 310.66ZM269.147 314.3V301.06C269.147 300.833 269.247 300.667 269.447 300.56C269.66 300.44 269.913 300.38 270.207 300.38C270.5 300.38 270.747 300.44 270.947 300.56C271.16 300.667 271.267 300.833 271.267 301.06V314.3C271.267 314.513 271.16 314.687 270.947 314.82C270.747 314.94 270.5 315 270.207 315C269.927 315 269.68 314.94 269.467 314.82C269.253 314.687 269.147 314.513 269.147 314.3ZM273.172 312.8C273.172 312.547 273.266 312.293 273.452 312.04C273.639 311.787 273.852 311.66 274.092 311.66C274.239 311.66 274.412 311.747 274.612 311.92C274.826 312.08 275.032 312.26 275.232 312.46C275.432 312.647 275.732 312.827 276.132 313C276.546 313.16 277.006 313.24 277.512 313.24C278.272 313.24 278.879 313.06 279.332 312.7C279.799 312.34 280.032 311.813 280.032 311.12C280.032 310.48 279.806 309.947 279.352 309.52C278.912 309.093 278.372 308.753 277.732 308.5C277.106 308.247 276.472 307.973 275.832 307.68C275.192 307.387 274.646 306.947 274.192 306.36C273.752 305.773 273.532 305.04 273.532 304.16C273.532 303.453 273.666 302.84 273.932 302.32C274.212 301.8 274.586 301.4 275.052 301.12C275.519 300.84 276.006 300.64 276.512 300.52C277.032 300.387 277.579 300.32 278.152 300.32C278.512 300.32 278.886 300.347 279.272 300.4C279.672 300.44 280.066 300.513 280.452 300.62C280.839 300.727 281.159 300.88 281.412 301.08C281.666 301.28 281.792 301.507 281.792 301.76C281.792 302.013 281.712 302.267 281.552 302.52C281.392 302.773 281.179 302.9 280.912 302.9C280.779 302.9 280.599 302.84 280.372 302.72C280.146 302.587 279.839 302.46 279.452 302.34C279.079 302.207 278.646 302.14 278.152 302.14C277.392 302.14 276.786 302.293 276.332 302.6C275.879 302.893 275.652 303.347 275.652 303.96C275.652 304.36 275.772 304.707 276.012 305C276.252 305.28 276.559 305.513 276.932 305.7C277.319 305.887 277.746 306.073 278.212 306.26C278.679 306.433 279.139 306.64 279.592 306.88C280.059 307.12 280.479 307.4 280.852 307.72C281.239 308.027 281.552 308.453 281.792 309C282.032 309.547 282.152 310.18 282.152 310.9C282.152 312.287 281.732 313.347 280.892 314.08C280.066 314.8 278.966 315.16 277.592 315.16C276.366 315.16 275.319 314.907 274.452 314.4C273.599 313.88 273.172 313.347 273.172 312.8ZM283.107 301.34C283.107 301.087 283.167 300.867 283.287 300.68C283.407 300.48 283.58 300.38 283.807 300.38H292.107C292.333 300.38 292.507 300.473 292.627 300.66C292.747 300.847 292.807 301.067 292.807 301.32C292.807 301.6 292.74 301.84 292.607 302.04C292.487 302.227 292.32 302.32 292.107 302.32H289.027V314.3C289.027 314.513 288.92 314.687 288.707 314.82C288.493 314.94 288.247 315 287.967 315C287.673 315 287.42 314.94 287.207 314.82C287.007 314.687 286.907 314.513 286.907 314.3V302.32H283.807C283.593 302.32 283.42 302.227 283.287 302.04C283.167 301.84 283.107 301.607 283.107 301.34ZM294.401 314.3V301.06C294.401 300.873 294.467 300.713 294.601 300.58C294.734 300.447 294.901 300.38 295.101 300.38H298.901C301.967 300.38 303.501 301.74 303.501 304.46C303.501 305.593 303.247 306.487 302.741 307.14C302.234 307.78 301.547 308.207 300.681 308.42L303.481 313.68C303.534 313.773 303.561 313.873 303.561 313.98C303.561 314.247 303.421 314.493 303.141 314.72C302.874 314.947 302.587 315.06 302.281 315.06C301.934 315.06 301.654 314.853 301.441 314.44L298.521 308.72H296.501V314.3C296.501 314.513 296.394 314.687 296.181 314.82C295.981 314.94 295.734 315 295.441 315C295.161 315 294.914 314.94 294.701 314.82C294.501 314.687 294.401 314.513 294.401 314.3ZM296.501 307.02H298.901C300.554 307.02 301.381 306.227 301.381 304.64C301.381 303.053 300.554 302.26 298.901 302.26H296.501V307.02ZM305.433 310.66V304.84C305.433 303.307 305.839 302.18 306.653 301.46C307.466 300.74 308.553 300.38 309.913 300.38C311.273 300.38 312.359 300.74 313.173 301.46C313.999 302.18 314.413 303.307 314.413 304.84V310.66C314.413 312.193 313.999 313.32 313.173 314.04C312.359 314.76 311.273 315.12 309.913 315.12C308.553 315.12 307.466 314.76 306.653 314.04C305.839 313.32 305.433 312.193 305.433 310.66ZM307.553 310.66C307.553 312.38 308.339 313.24 309.913 313.24C310.673 313.24 311.259 313.027 311.673 312.6C312.086 312.173 312.293 311.527 312.293 310.66V304.84C312.293 303.973 312.086 303.327 311.673 302.9C311.259 302.473 310.673 302.26 309.913 302.26C308.339 302.26 307.553 303.12 307.553 304.84V310.66Z" fill="white"/>
<rect opacity="0.5" x="48" y="591" width="279" height="1" fill="#F5F5F5"/>
<path d="M49.064 545.636V536.116C49.064 536.004 49.106 535.92 49.19 535.864C49.274 535.799 49.372 535.766 49.484 535.766H54.468C54.7013 535.766 54.818 535.901 54.818 536.172C54.818 536.293 54.7853 536.401 54.72 536.494C54.664 536.578 54.58 536.62 54.468 536.62H49.988V540.47H52.186C52.298 540.47 52.382 540.512 52.438 540.596C52.5033 540.671 52.536 540.769 52.536 540.89C52.536 541.142 52.4193 541.268 52.186 541.268H49.988V545.146H54.468C54.5707 545.146 54.6547 545.188 54.72 545.272C54.7853 545.356 54.818 545.459 54.818 545.58C54.818 545.86 54.7013 546 54.468 546H49.484C49.372 546 49.274 545.967 49.19 545.902C49.106 545.837 49.064 545.748 49.064 545.636ZM56.1734 545.636V536.214C56.1734 535.915 56.3274 535.766 56.6354 535.766C56.906 535.766 57.1534 535.981 57.3774 536.41L59.7854 541.058L62.1934 536.41C62.4174 535.981 62.6647 535.766 62.9354 535.766C63.2434 535.766 63.3974 535.915 63.3974 536.214V545.636C63.3974 545.748 63.3507 545.837 63.2574 545.902C63.1734 545.967 63.066 546 62.9354 546C62.814 546 62.7067 545.967 62.6134 545.902C62.52 545.837 62.4734 545.748 62.4734 545.636V537.768L60.1494 542.164C60.0467 542.36 59.9207 542.458 59.7714 542.458C59.6314 542.458 59.51 542.36 59.4074 542.164L57.0974 537.726V545.636C57.0974 545.748 57.0507 545.837 56.9574 545.902C56.864 545.967 56.7567 546 56.6354 546C56.5047 546 56.3927 545.967 56.2994 545.902C56.2154 545.837 56.1734 545.748 56.1734 545.636ZM64.7549 545.608C64.7549 545.561 64.7596 545.529 64.7689 545.51L67.6949 536.004C67.7603 535.789 67.9423 535.682 68.2409 535.682C68.5396 535.682 68.7263 535.789 68.8009 536.004L71.7129 545.51C71.7129 545.519 71.7129 545.533 71.7129 545.552C71.7223 545.571 71.7269 545.585 71.7269 545.594C71.7269 545.706 71.6663 545.804 71.5449 545.888C71.4236 545.963 71.2976 546 71.1669 546C70.9896 546 70.8729 545.921 70.8169 545.762L70.1729 543.606H66.2949L65.6509 545.762C65.6136 545.921 65.4923 546 65.2869 546C65.1563 546 65.0349 545.963 64.9229 545.888C64.8109 545.813 64.7549 545.72 64.7549 545.608ZM66.5329 542.808H69.9349L68.2409 537.166L66.5329 542.808ZM73.0855 545.636V536.102C73.0855 535.878 73.2395 535.766 73.5475 535.766C73.8555 535.766 74.0095 535.878 74.0095 536.102V545.636C74.0095 545.748 73.9628 545.837 73.8695 545.902C73.7762 545.967 73.6688 546 73.5475 546C73.4168 546 73.3048 545.967 73.2115 545.902C73.1275 545.837 73.0855 545.748 73.0855 545.636ZM76.1343 545.636V536.102C76.1343 535.878 76.2883 535.766 76.5963 535.766C76.9043 535.766 77.0583 535.878 77.0583 536.102V545.146H81.0483C81.2536 545.146 81.3563 545.286 81.3563 545.566C81.3563 545.855 81.2536 546 81.0483 546H76.5543C76.4423 546 76.3443 545.967 76.2603 545.902C76.1763 545.837 76.1343 545.748 76.1343 545.636Z" fill="#F5F5F5"/>
<path d="M48.72 572.072V570.28C48.72 569.48 49.0187 568.792 49.616 568.216C50.2133 567.629 50.9333 567.336 51.776 567.336C52.5867 567.336 53.2853 567.613 53.872 568.168C54.4693 568.723 54.768 569.416 54.768 570.248C54.768 570.547 54.7307 570.787 54.656 570.968C54.592 571.149 54.48 571.277 54.32 571.352C54.1707 571.427 54.032 571.475 53.904 571.496C53.776 571.517 53.6 571.528 53.376 571.528H49.76V572.12C49.76 572.749 49.984 573.256 50.432 573.64C50.8907 574.013 51.4773 574.2 52.192 574.2C52.5547 574.2 52.8693 574.147 53.136 574.04C53.4133 573.933 53.6213 573.827 53.76 573.72C53.9093 573.613 54.0267 573.56 54.112 573.56C54.2293 573.56 54.3307 573.619 54.416 573.736C54.512 573.843 54.56 573.949 54.56 574.056C54.56 574.28 54.3307 574.515 53.872 574.76C53.4133 574.995 52.8427 575.112 52.16 575.112C51.1467 575.112 50.32 574.835 49.68 574.28C49.04 573.715 48.72 572.979 48.72 572.072ZM49.76 570.76H52.96C53.28 570.76 53.4933 570.728 53.6 570.664C53.7067 570.589 53.76 570.44 53.76 570.216C53.76 569.683 53.568 569.213 53.184 568.808C52.8107 568.403 52.336 568.2 51.76 568.2C51.2053 568.2 50.7307 568.392 50.336 568.776C49.952 569.16 49.76 569.619 49.76 570.152V570.76ZM54.7361 578.248C54.7361 578.109 54.7788 577.992 54.8641 577.896C54.9495 577.811 55.0561 577.768 55.1841 577.768C55.6535 577.768 55.9628 577.592 56.1121 577.24C56.2615 576.899 56.3361 576.381 56.3361 575.688V567.816C56.3361 567.699 56.3841 567.608 56.4801 567.544C56.5761 567.469 56.6988 567.432 56.8481 567.432C56.9975 567.432 57.1201 567.469 57.2161 567.544C57.3228 567.619 57.3761 567.709 57.3761 567.816V575.688C57.3761 577.704 56.6721 578.712 55.2641 578.712C55.0828 578.712 54.9495 578.664 54.8641 578.568C54.7788 578.483 54.7361 578.376 54.7361 578.248ZM56.3361 565C56.1975 564.861 56.1281 564.701 56.1281 564.52C56.1281 564.339 56.1975 564.184 56.3361 564.056C56.4748 563.928 56.6455 563.864 56.8481 563.864C57.0401 563.864 57.2001 563.928 57.3281 564.056C57.4668 564.184 57.5361 564.339 57.5361 564.52C57.5361 564.701 57.4668 564.861 57.3281 565C57.2001 565.128 57.0401 565.192 56.8481 565.192C56.6455 565.192 56.4748 565.128 56.3361 565ZM59.1106 572.072V570.28C59.1106 569.48 59.4093 568.792 60.0066 568.216C60.604 567.629 61.324 567.336 62.1666 567.336C62.9773 567.336 63.676 567.613 64.2626 568.168C64.86 568.723 65.1586 569.416 65.1586 570.248C65.1586 570.547 65.1213 570.787 65.0466 570.968C64.9826 571.149 64.8706 571.277 64.7106 571.352C64.5613 571.427 64.4226 571.475 64.2946 571.496C64.1666 571.517 63.9906 571.528 63.7666 571.528H60.1506V572.12C60.1506 572.749 60.3746 573.256 60.8226 573.64C61.2813 574.013 61.868 574.2 62.5826 574.2C62.9453 574.2 63.26 574.147 63.5266 574.04C63.804 573.933 64.012 573.827 64.1506 573.72C64.3 573.613 64.4173 573.56 64.5026 573.56C64.62 573.56 64.7213 573.619 64.8066 573.736C64.9026 573.843 64.9506 573.949 64.9506 574.056C64.9506 574.28 64.7213 574.515 64.2626 574.76C63.804 574.995 63.2333 575.112 62.5506 575.112C61.5373 575.112 60.7106 574.835 60.0706 574.28C59.4306 573.715 59.1106 572.979 59.1106 572.072ZM60.1506 570.76H63.3506C63.6706 570.76 63.884 570.728 63.9906 570.664C64.0973 570.589 64.1506 570.44 64.1506 570.216C64.1506 569.683 63.9586 569.213 63.5746 568.808C63.2013 568.403 62.7266 568.2 62.1506 568.2C61.596 568.2 61.1213 568.392 60.7266 568.776C60.3426 569.16 60.1506 569.619 60.1506 570.152V570.76ZM66.7268 574.584V567.816C66.7268 567.709 66.7748 567.619 66.8708 567.544C66.9668 567.469 67.0894 567.432 67.2388 567.432C67.3774 567.432 67.4948 567.469 67.5908 567.544C67.6868 567.619 67.7348 567.709 67.7348 567.816V568.552C67.9268 568.2 68.2041 567.912 68.5668 567.688C68.9401 567.453 69.3721 567.336 69.8628 567.336C70.3748 567.336 70.8334 567.485 71.2388 567.784C71.6441 568.072 71.9428 568.456 72.1348 568.936C72.4014 568.413 72.7534 568.019 73.1908 567.752C73.6281 567.475 74.0868 567.336 74.5668 567.336C75.2921 567.336 75.9214 567.608 76.4548 568.152C76.9881 568.696 77.2548 569.421 77.2548 570.328V574.584C77.2548 574.691 77.2014 574.787 77.0948 574.872C76.9988 574.957 76.8761 575 76.7268 575C76.5881 575 76.4654 574.957 76.3588 574.872C76.2628 574.787 76.2148 574.691 76.2148 574.584V570.328C76.2148 569.699 76.0281 569.203 75.6548 568.84C75.2921 568.477 74.8708 568.296 74.3908 568.296C73.9001 568.296 73.4628 568.483 73.0788 568.856C72.7054 569.219 72.5188 569.688 72.5188 570.264V574.6C72.5188 574.867 72.3428 575 71.9908 575C71.6494 575 71.4788 574.867 71.4788 574.6V570.28C71.4788 569.715 71.2974 569.245 70.9348 568.872C70.5828 568.488 70.1561 568.296 69.6548 568.296C69.1534 568.296 68.7108 568.483 68.3268 568.856C67.9534 569.219 67.7668 569.709 67.7668 570.328V574.584C67.7668 574.691 67.7134 574.787 67.6068 574.872C67.5001 574.957 67.3774 575 67.2388 575C67.1001 575 66.9774 574.957 66.8708 574.872C66.7748 574.787 66.7268 574.691 66.7268 574.584ZM79.2111 578.312V567.816C79.2111 567.709 79.2591 567.619 79.3551 567.544C79.4511 567.469 79.5738 567.432 79.7231 567.432C79.8618 567.432 79.9791 567.469 80.0751 567.544C80.1711 567.619 80.2191 567.709 80.2191 567.816V568.552C80.4111 568.211 80.6938 567.923 81.0671 567.688C81.4405 567.453 81.8725 567.336 82.3631 567.336C83.1525 567.336 83.8298 567.629 84.3951 568.216C84.9605 568.803 85.2431 569.507 85.2431 570.328V572.072C85.2431 572.872 84.9551 573.581 84.3791 574.2C83.8138 574.808 83.1578 575.112 82.4111 575.112C81.9418 575.112 81.5098 574.995 81.1151 574.76C80.7205 574.515 80.4325 574.221 80.2511 573.88V578.312C80.2511 578.408 80.1978 578.499 80.0911 578.584C79.9951 578.669 79.8725 578.712 79.7231 578.712C79.5845 578.712 79.4618 578.669 79.3551 578.584C79.2591 578.499 79.2111 578.408 79.2111 578.312ZM80.2511 572.568C80.2511 572.856 80.4485 573.192 80.8431 573.576C81.2485 573.96 81.7071 574.152 82.2191 574.152C82.7418 574.152 83.2005 573.939 83.5951 573.512C84.0005 573.085 84.2031 572.605 84.2031 572.072V570.328C84.2031 569.805 84.0005 569.336 83.5951 568.92C83.2005 568.504 82.7311 568.296 82.1871 568.296C81.6751 568.296 81.2218 568.483 80.8271 568.856C80.4431 569.229 80.2511 569.72 80.2511 570.328V572.568ZM87.0891 574.584V563.176C87.0891 563.069 87.1371 562.979 87.2331 562.904C87.3291 562.829 87.4518 562.792 87.6011 562.792C87.7505 562.792 87.8731 562.829 87.9691 562.904C88.0758 562.979 88.1291 563.069 88.1291 563.176V574.584C88.1291 574.691 88.0758 574.787 87.9691 574.872C87.8731 574.957 87.7505 575 87.6011 575C87.4625 575 87.3398 574.957 87.2331 574.872C87.1371 574.787 87.0891 574.691 87.0891 574.584ZM89.9696 572.072V570.328C89.9696 569.517 90.2683 568.819 90.8656 568.232C91.463 567.635 92.1723 567.336 92.9936 567.336C93.815 567.336 94.5296 567.629 95.1376 568.216C95.7456 568.803 96.0496 569.507 96.0496 570.328V572.072C96.0496 572.872 95.7403 573.581 95.1216 574.2C94.5136 574.808 93.8043 575.112 92.9936 575.112C92.1936 575.112 91.4896 574.808 90.8816 574.2C90.2736 573.581 89.9696 572.872 89.9696 572.072ZM91.0096 572.072C91.0096 572.616 91.2016 573.101 91.5856 573.528C91.9803 573.944 92.4496 574.152 92.9936 574.152C93.5483 574.152 94.023 573.944 94.4176 573.528C94.8123 573.101 95.0096 572.616 95.0096 572.072V570.328C95.0096 569.805 94.807 569.336 94.4016 568.92C94.007 568.504 93.5376 568.296 92.9936 568.296C92.4496 568.296 91.9803 568.504 91.5856 568.92C91.2016 569.336 91.0096 569.805 91.0096 570.328V572.072ZM97.598 571.528C97.598 569.917 98.014 568.605 98.846 567.592C99.678 566.579 100.937 566.072 102.622 566.072C104.201 566.072 105.417 566.52 106.27 567.416C107.123 568.301 107.55 569.571 107.55 571.224C107.55 571.832 107.491 572.371 107.374 572.84C107.267 573.299 107.059 573.688 106.75 574.008C106.451 574.328 106.073 574.488 105.614 574.488C105.219 574.488 104.878 574.387 104.59 574.184C104.302 573.981 104.126 573.736 104.062 573.448C103.753 573.757 103.454 573.987 103.166 574.136C102.889 574.275 102.531 574.344 102.094 574.344C101.497 574.344 101.011 574.205 100.638 573.928C100.275 573.64 100.094 573.197 100.094 572.6C100.094 571.917 100.355 571.448 100.878 571.192C101.401 570.925 102.185 570.792 103.23 570.792H103.918V570.488C103.918 570.019 103.79 569.677 103.534 569.464C103.289 569.24 102.894 569.128 102.35 569.128C101.945 569.128 101.598 569.197 101.31 569.336C101.022 569.464 100.862 569.528 100.83 569.528C100.734 569.528 100.654 569.48 100.59 569.384C100.526 569.277 100.494 569.176 100.494 569.08C100.494 568.867 100.707 568.685 101.134 568.536C101.561 568.376 102.019 568.296 102.51 568.296C103.214 568.296 103.769 568.477 104.174 568.84C104.579 569.192 104.782 569.693 104.782 570.344V573C104.814 573.235 104.915 573.427 105.086 573.576C105.267 573.725 105.465 573.8 105.678 573.8C106.393 573.8 106.75 572.979 106.75 571.336C106.75 569.896 106.403 568.792 105.71 568.024C105.017 567.245 103.977 566.856 102.59 566.856C101.822 566.856 101.155 566.984 100.59 567.24C100.035 567.485 99.598 567.832 99.278 568.28C98.9687 568.728 98.7393 569.219 98.59 569.752C98.4513 570.285 98.382 570.872 98.382 571.512C98.382 572.109 98.446 572.659 98.574 573.16C98.702 573.661 98.9047 574.125 99.182 574.552C99.47 574.968 99.8593 575.293 100.35 575.528C100.851 575.773 101.438 575.896 102.11 575.896C102.665 575.896 103.177 575.811 103.646 575.64C104.115 575.48 104.355 575.4 104.366 575.4C104.462 575.4 104.542 575.437 104.606 575.512C104.67 575.597 104.702 575.677 104.702 575.752C104.702 575.976 104.409 576.179 103.822 576.36C103.235 576.552 102.627 576.648 101.998 576.648C100.761 576.648 99.7153 576.211 98.862 575.336C98.0193 574.472 97.598 573.203 97.598 571.528ZM100.99 572.6C100.99 572.952 101.102 573.213 101.326 573.384C101.55 573.555 101.843 573.64 102.206 573.64C102.707 573.64 103.123 573.501 103.454 573.224C103.785 572.947 103.95 572.648 103.95 572.328V571.448H103.294C102.526 571.448 101.95 571.528 101.566 571.688C101.182 571.837 100.99 572.141 100.99 572.6ZM108.923 572.072V570.28C108.923 569.48 109.222 568.792 109.819 568.216C110.416 567.629 111.136 567.336 111.979 567.336C112.79 567.336 113.488 567.613 114.075 568.168C114.672 568.723 114.971 569.416 114.971 570.248C114.971 570.547 114.934 570.787 114.859 570.968C114.795 571.149 114.683 571.277 114.523 571.352C114.374 571.427 114.235 571.475 114.107 571.496C113.979 571.517 113.803 571.528 113.579 571.528H109.963V572.12C109.963 572.749 110.187 573.256 110.635 573.64C111.094 574.013 111.68 574.2 112.395 574.2C112.758 574.2 113.072 574.147 113.339 574.04C113.616 573.933 113.824 573.827 113.963 573.72C114.112 573.613 114.23 573.56 114.315 573.56C114.432 573.56 114.534 573.619 114.619 573.736C114.715 573.843 114.763 573.949 114.763 574.056C114.763 574.28 114.534 574.515 114.075 574.76C113.616 574.995 113.046 575.112 112.363 575.112C111.35 575.112 110.523 574.835 109.883 574.28C109.243 573.715 108.923 572.979 108.923 572.072ZM109.963 570.76H113.163C113.483 570.76 113.696 570.728 113.803 570.664C113.91 570.589 113.963 570.44 113.963 570.216C113.963 569.683 113.771 569.213 113.387 568.808C113.014 568.403 112.539 568.2 111.963 568.2C111.408 568.2 110.934 568.392 110.539 568.776C110.155 569.16 109.963 569.619 109.963 570.152V570.76ZM116.539 574.584V567.816C116.539 567.709 116.587 567.619 116.683 567.544C116.779 567.469 116.902 567.432 117.051 567.432C117.19 567.432 117.307 567.469 117.403 567.544C117.499 567.619 117.547 567.709 117.547 567.816V568.552C117.739 568.2 118.017 567.912 118.379 567.688C118.753 567.453 119.185 567.336 119.675 567.336C120.187 567.336 120.646 567.485 121.051 567.784C121.457 568.072 121.755 568.456 121.947 568.936C122.214 568.413 122.566 568.019 123.003 567.752C123.441 567.475 123.899 567.336 124.379 567.336C125.105 567.336 125.734 567.608 126.267 568.152C126.801 568.696 127.067 569.421 127.067 570.328V574.584C127.067 574.691 127.014 574.787 126.907 574.872C126.811 574.957 126.689 575 126.539 575C126.401 575 126.278 574.957 126.171 574.872C126.075 574.787 126.027 574.691 126.027 574.584V570.328C126.027 569.699 125.841 569.203 125.467 568.84C125.105 568.477 124.683 568.296 124.203 568.296C123.713 568.296 123.275 568.483 122.891 568.856C122.518 569.219 122.331 569.688 122.331 570.264V574.6C122.331 574.867 122.155 575 121.803 575C121.462 575 121.291 574.867 121.291 574.6V570.28C121.291 569.715 121.11 569.245 120.747 568.872C120.395 568.488 119.969 568.296 119.467 568.296C118.966 568.296 118.523 568.483 118.139 568.856C117.766 569.219 117.579 569.709 117.579 570.328V574.584C117.579 574.691 117.526 574.787 117.419 574.872C117.313 574.957 117.19 575 117.051 575C116.913 575 116.79 574.957 116.683 574.872C116.587 574.787 116.539 574.691 116.539 574.584ZM128.496 573C128.496 572.179 128.81 571.608 129.44 571.288C130.08 570.968 131.008 570.808 132.224 570.808H133.04V570.424C133.04 569.837 132.885 569.331 132.576 568.904C132.266 568.467 131.792 568.248 131.152 568.248C130.725 568.248 130.336 568.328 129.984 568.488C129.642 568.637 129.461 568.712 129.44 568.712C129.312 568.712 129.21 568.653 129.136 568.536C129.061 568.419 129.024 568.291 129.024 568.152C129.024 567.949 129.253 567.763 129.712 567.592C130.17 567.421 130.661 567.336 131.184 567.336C132.186 567.336 132.917 567.629 133.376 568.216C133.845 568.792 134.08 569.528 134.08 570.424V574.584C134.08 574.701 134.032 574.803 133.936 574.888C133.84 574.963 133.717 575 133.568 575C133.429 575 133.312 574.963 133.216 574.888C133.13 574.803 133.088 574.701 133.088 574.584V573.88C132.373 574.701 131.568 575.112 130.672 575.112C130.032 575.112 129.509 574.936 129.104 574.584C128.698 574.221 128.496 573.693 128.496 573ZM129.536 572.904C129.536 573.352 129.664 573.688 129.92 573.912C130.176 574.125 130.512 574.232 130.928 574.232C131.429 574.232 131.904 574.045 132.352 573.672C132.81 573.299 133.04 572.925 133.04 572.552V571.528H132.368C131.941 571.528 131.578 571.544 131.28 571.576C130.992 571.608 130.704 571.667 130.416 571.752C130.128 571.837 129.909 571.976 129.76 572.168C129.61 572.36 129.536 572.605 129.536 572.904ZM136.039 565C135.901 564.861 135.831 564.701 135.831 564.52C135.831 564.339 135.901 564.184 136.039 564.056C136.178 563.928 136.349 563.864 136.551 563.864C136.743 563.864 136.903 563.928 137.031 564.056C137.17 564.184 137.239 564.339 137.239 564.52C137.239 564.701 137.17 564.861 137.031 565C136.903 565.128 136.743 565.192 136.551 565.192C136.349 565.192 136.178 565.128 136.039 565ZM136.039 574.584V567.816C136.039 567.709 136.087 567.619 136.183 567.544C136.279 567.469 136.402 567.432 136.551 567.432C136.701 567.432 136.823 567.469 136.919 567.544C137.026 567.619 137.079 567.709 137.079 567.816V574.584C137.079 574.691 137.026 574.787 136.919 574.872C136.813 574.957 136.69 575 136.551 575C136.413 575 136.29 574.957 136.183 574.872C136.087 574.787 136.039 574.691 136.039 574.584ZM139.23 574.584V563.176C139.23 563.069 139.278 562.979 139.374 562.904C139.47 562.829 139.592 562.792 139.742 562.792C139.891 562.792 140.014 562.829 140.11 562.904C140.216 562.979 140.27 563.069 140.27 563.176V574.584C140.27 574.691 140.216 574.787 140.11 574.872C140.014 574.957 139.891 575 139.742 575C139.603 575 139.48 574.957 139.374 574.872C139.278 574.787 139.23 574.691 139.23 574.584ZM142.046 574.36C142.046 574.147 142.116 573.971 142.254 573.832C142.393 573.683 142.569 573.608 142.782 573.608C142.974 573.608 143.14 573.683 143.278 573.832C143.428 573.981 143.502 574.157 143.502 574.36C143.502 574.552 143.428 574.723 143.278 574.872C143.14 575.021 142.974 575.096 142.782 575.096C142.569 575.096 142.393 575.027 142.254 574.888C142.116 574.739 142.046 574.563 142.046 574.36ZM144.877 572.072V570.36C144.877 569.464 145.138 568.739 145.661 568.184C146.183 567.619 146.951 567.336 147.965 567.336C148.605 567.336 149.138 567.453 149.565 567.688C150.002 567.912 150.221 568.141 150.221 568.376C150.221 568.493 150.173 568.611 150.077 568.728C149.981 568.835 149.874 568.888 149.757 568.888C149.693 568.888 149.591 568.84 149.453 568.744C149.325 568.648 149.138 568.552 148.893 568.456C148.647 568.349 148.354 568.296 148.013 568.296C147.33 568.296 146.807 568.477 146.445 568.84C146.093 569.203 145.917 569.709 145.917 570.36V572.072C145.917 572.733 146.093 573.245 146.445 573.608C146.807 573.971 147.335 574.152 148.029 574.152C148.391 574.152 148.695 574.104 148.941 574.008C149.197 573.901 149.389 573.8 149.517 573.704C149.655 573.597 149.762 573.544 149.837 573.544C149.975 573.544 150.087 573.597 150.173 573.704C150.269 573.811 150.317 573.928 150.317 574.056C150.317 574.301 150.093 574.541 149.645 574.776C149.197 575 148.642 575.112 147.981 575.112C146.957 575.112 146.183 574.835 145.661 574.28C145.138 573.725 144.877 572.989 144.877 572.072ZM151.345 572.072V570.328C151.345 569.517 151.643 568.819 152.241 568.232C152.838 567.635 153.547 567.336 154.369 567.336C155.19 567.336 155.905 567.629 156.513 568.216C157.121 568.803 157.425 569.507 157.425 570.328V572.072C157.425 572.872 157.115 573.581 156.497 574.2C155.889 574.808 155.179 575.112 154.369 575.112C153.569 575.112 152.865 574.808 152.257 574.2C151.649 573.581 151.345 572.872 151.345 572.072ZM152.385 572.072C152.385 572.616 152.577 573.101 152.961 573.528C153.355 573.944 153.825 574.152 154.369 574.152C154.923 574.152 155.398 573.944 155.793 573.528C156.187 573.101 156.385 572.616 156.385 572.072V570.328C156.385 569.805 156.182 569.336 155.777 568.92C155.382 568.504 154.913 568.296 154.369 568.296C153.825 568.296 153.355 568.504 152.961 568.92C152.577 569.336 152.385 569.805 152.385 570.328V572.072ZM159.133 574.584V567.816C159.133 567.709 159.181 567.619 159.277 567.544C159.373 567.469 159.496 567.432 159.645 567.432C159.784 567.432 159.901 567.469 159.997 567.544C160.093 567.619 160.141 567.709 160.141 567.816V568.552C160.333 568.2 160.61 567.912 160.973 567.688C161.346 567.453 161.778 567.336 162.269 567.336C162.781 567.336 163.24 567.485 163.645 567.784C164.05 568.072 164.349 568.456 164.541 568.936C164.808 568.413 165.16 568.019 165.597 567.752C166.034 567.475 166.493 567.336 166.973 567.336C167.698 567.336 168.328 567.608 168.861 568.152C169.394 568.696 169.661 569.421 169.661 570.328V574.584C169.661 574.691 169.608 574.787 169.501 574.872C169.405 574.957 169.282 575 169.133 575C168.994 575 168.872 574.957 168.765 574.872C168.669 574.787 168.621 574.691 168.621 574.584V570.328C168.621 569.699 168.434 569.203 168.061 568.84C167.698 568.477 167.277 568.296 166.797 568.296C166.306 568.296 165.869 568.483 165.485 568.856C165.112 569.219 164.925 569.688 164.925 570.264V574.6C164.925 574.867 164.749 575 164.397 575C164.056 575 163.885 574.867 163.885 574.6V570.28C163.885 569.715 163.704 569.245 163.341 568.872C162.989 568.488 162.562 568.296 162.061 568.296C161.56 568.296 161.117 568.483 160.733 568.856C160.36 569.219 160.173 569.709 160.173 570.328V574.584C160.173 574.691 160.12 574.787 160.013 574.872C159.906 574.957 159.784 575 159.645 575C159.506 575 159.384 574.957 159.277 574.872C159.181 574.787 159.133 574.691 159.133 574.584Z" fill="white" fill-opacity="0.5"/>
<rect opacity="0.5" x="48" y="676" width="279" height="1" fill="#F5F5F5"/>
<path d="M48.952 628.088V623.748C48.952 622.731 49.2227 621.979 49.764 621.494C50.3147 621.009 51.024 620.766 51.892 620.766C52.7787 620.766 53.4787 620.995 53.992 621.452C54.5147 621.9 54.776 622.451 54.776 623.104C54.776 623.328 54.7387 623.477 54.664 623.552C54.5987 623.627 54.482 623.664 54.314 623.664C54.0247 623.664 53.8707 623.547 53.852 623.314C53.8427 623.174 53.824 623.039 53.796 622.908C53.768 622.777 53.712 622.633 53.628 622.474C53.544 622.306 53.432 622.161 53.292 622.04C53.1613 621.919 52.9747 621.821 52.732 621.746C52.4893 621.662 52.2093 621.62 51.892 621.62C50.548 621.62 49.876 622.329 49.876 623.748V628.088C49.876 629.516 50.5667 630.23 51.948 630.23C52.34 630.23 52.6667 630.179 52.928 630.076C53.1893 629.964 53.3807 629.805 53.502 629.6C53.6233 629.395 53.7027 629.222 53.74 629.082C53.7867 628.933 53.824 628.741 53.852 628.508C53.88 628.265 54.034 628.144 54.314 628.144C54.482 628.144 54.5987 628.186 54.664 628.27C54.7387 628.345 54.776 628.494 54.776 628.718C54.776 629.381 54.51 629.941 53.978 630.398C53.4553 630.855 52.746 631.084 51.85 631.084C50.9913 631.084 50.2913 630.841 49.75 630.356C49.218 629.871 48.952 629.115 48.952 628.088ZM56.2801 628.088V623.748C56.2801 622.721 56.5415 621.97 57.0641 621.494C57.5961 621.009 58.3055 620.766 59.1921 620.766C60.0788 620.766 60.7835 621.009 61.3061 621.494C61.8381 621.97 62.1041 622.721 62.1041 623.748V628.088C62.1041 629.124 61.8381 629.885 61.3061 630.37C60.7835 630.846 60.0788 631.084 59.1921 631.084C58.3055 631.084 57.5961 630.846 57.0641 630.37C56.5415 629.885 56.2801 629.124 56.2801 628.088ZM57.2041 628.088C57.2041 629.516 57.8668 630.23 59.1921 630.23C60.5175 630.23 61.1801 629.516 61.1801 628.088V623.748C61.1801 622.329 60.5175 621.62 59.1921 621.62C57.8668 621.62 57.2041 622.329 57.2041 623.748V628.088ZM64.1167 630.636V621.116C64.1167 620.883 64.2707 620.766 64.5787 620.766C64.8401 620.766 65.0827 620.981 65.3067 621.41L69.0867 628.858V621.102C69.0867 620.878 69.2407 620.766 69.5487 620.766C69.8567 620.766 70.0107 620.878 70.0107 621.102V630.636C70.0107 630.748 69.9641 630.837 69.8707 630.902C69.7774 630.967 69.6701 631 69.5487 631C69.3154 631 69.1101 630.823 68.9327 630.468L65.0407 622.894V630.636C65.0407 630.748 64.9941 630.837 64.9007 630.902C64.8074 630.967 64.7001 631 64.5787 631C64.4481 631 64.3361 630.967 64.2427 630.902C64.1587 630.837 64.1167 630.748 64.1167 630.636ZM71.2881 621.2C71.2881 621.088 71.3161 620.99 71.3721 620.906C71.4375 620.813 71.5261 620.766 71.6381 620.766H77.2521C77.3641 620.766 77.4481 620.808 77.5041 620.892C77.5695 620.976 77.6021 621.074 77.6021 621.186C77.6021 621.307 77.5695 621.415 77.5041 621.508C77.4481 621.592 77.3641 621.634 77.2521 621.634H74.9141V630.636C74.9141 630.748 74.8675 630.837 74.7741 630.902C74.6808 630.967 74.5735 631 74.4521 631C74.3215 631 74.2095 630.967 74.1161 630.902C74.0321 630.837 73.9901 630.748 73.9901 630.636V621.634H71.6381C71.5355 621.634 71.4515 621.592 71.3861 621.508C71.3208 621.424 71.2881 621.321 71.2881 621.2ZM78.8824 630.636V621.102C78.8824 620.897 78.999 620.785 79.2324 620.766H81.7104C82.6157 620.766 83.3437 620.981 83.8944 621.41C84.4544 621.839 84.7344 622.544 84.7344 623.524C84.7344 625.073 84.0064 625.974 82.5504 626.226L84.7064 630.37C84.7437 630.417 84.7624 630.477 84.7624 630.552C84.7624 630.673 84.7064 630.785 84.5944 630.888C84.4824 630.981 84.361 631.028 84.2304 631.028C84.0624 631.028 83.899 630.865 83.7404 630.538L81.5844 626.338H79.8064V630.636C79.8064 630.748 79.7597 630.837 79.6664 630.902C79.573 630.967 79.4657 631 79.3444 631C79.2137 631 79.1017 630.967 79.0084 630.902C78.9244 630.837 78.8824 630.748 78.8824 630.636ZM79.8064 625.54H81.7104C83.1104 625.54 83.8104 624.882 83.8104 623.566C83.8104 622.269 83.1104 621.62 81.7104 621.62H79.8064V625.54ZM85.5225 630.608C85.5225 630.561 85.5272 630.529 85.5365 630.51L88.4625 621.004C88.5278 620.789 88.7098 620.682 89.0085 620.682C89.3072 620.682 89.4938 620.789 89.5685 621.004L92.4805 630.51C92.4805 630.519 92.4805 630.533 92.4805 630.552C92.4898 630.571 92.4945 630.585 92.4945 630.594C92.4945 630.706 92.4338 630.804 92.3125 630.888C92.1912 630.963 92.0652 631 91.9345 631C91.7572 631 91.6405 630.921 91.5845 630.762L90.9405 628.606H87.0625L86.4185 630.762C86.3812 630.921 86.2598 631 86.0545 631C85.9238 631 85.8025 630.963 85.6905 630.888C85.5785 630.813 85.5225 630.72 85.5225 630.608ZM87.3005 627.808H90.7025L89.0085 622.166L87.3005 627.808ZM93.2931 629.586C93.2931 629.474 93.3351 629.362 93.4191 629.25C93.5124 629.129 93.6104 629.068 93.7131 629.068C93.7877 629.068 93.8811 629.129 93.9931 629.25L94.3851 629.656C94.5251 629.805 94.7444 629.941 95.0431 630.062C95.3511 630.174 95.7057 630.23 96.1071 630.23C96.7697 630.23 97.2831 630.067 97.6471 629.74C98.0111 629.404 98.1931 628.923 98.1931 628.298C98.1931 627.878 98.1044 627.523 97.9271 627.234C97.7591 626.935 97.5397 626.707 97.2691 626.548C97.0077 626.38 96.7091 626.231 96.3731 626.1L95.3651 625.708C95.0291 625.577 94.7257 625.423 94.4551 625.246C94.1937 625.059 93.9744 624.803 93.7971 624.476C93.6291 624.14 93.5451 623.743 93.5451 623.286C93.5451 622.801 93.6337 622.385 93.8111 622.04C93.9977 621.685 94.2451 621.419 94.5531 621.242C94.8611 621.065 95.1737 620.939 95.4911 620.864C95.8177 620.78 96.1584 620.738 96.5131 620.738C97.0824 620.738 97.6144 620.822 98.1091 620.99C98.6131 621.149 98.8651 621.349 98.8651 621.592C98.8651 621.704 98.8231 621.821 98.7391 621.942C98.6644 622.054 98.5711 622.11 98.4591 622.11C98.4031 622.11 98.2957 622.068 98.1371 621.984C97.9784 621.891 97.7544 621.802 97.4651 621.718C97.1851 621.625 96.8631 621.578 96.4991 621.578C95.9111 621.578 95.4257 621.704 95.0431 621.956C94.6604 622.208 94.4691 622.623 94.4691 623.202C94.4691 623.603 94.5811 623.939 94.8051 624.21C95.0384 624.481 95.3277 624.677 95.6731 624.798C96.0184 624.919 96.3917 625.064 96.7931 625.232C97.1944 625.4 97.5677 625.582 97.9131 625.778C98.2584 625.965 98.5431 626.268 98.7671 626.688C99.0004 627.099 99.1171 627.607 99.1171 628.214C99.1171 629.175 98.8511 629.899 98.3191 630.384C97.7871 630.86 97.0684 631.098 96.1631 631.098C95.3511 631.098 94.6697 630.925 94.1191 630.58C93.5684 630.225 93.2931 629.894 93.2931 629.586ZM100.771 630.636V621.116C100.771 621.004 100.813 620.92 100.897 620.864C100.981 620.799 101.079 620.766 101.191 620.766H106.175C106.408 620.766 106.525 620.901 106.525 621.172C106.525 621.293 106.492 621.401 106.427 621.494C106.371 621.578 106.287 621.62 106.175 621.62H101.695V625.47H103.893C104.005 625.47 104.089 625.512 104.145 625.596C104.21 625.671 104.243 625.769 104.243 625.89C104.243 626.142 104.126 626.268 103.893 626.268H101.695V630.146H106.175C106.278 630.146 106.362 630.188 106.427 630.272C106.492 630.356 106.525 630.459 106.525 630.58C106.525 630.86 106.408 631 106.175 631H101.191C101.079 631 100.981 630.967 100.897 630.902C100.813 630.837 100.771 630.748 100.771 630.636ZM107.88 630.636V621.116C107.88 620.883 108.034 620.766 108.342 620.766C108.604 620.766 108.846 620.981 109.07 621.41L112.85 628.858V621.102C112.85 620.878 113.004 620.766 113.312 620.766C113.62 620.766 113.774 620.878 113.774 621.102V630.636C113.774 630.748 113.728 630.837 113.634 630.902C113.541 630.967 113.434 631 113.312 631C113.079 631 112.874 630.823 112.696 630.468L108.804 622.894V630.636C108.804 630.748 108.758 630.837 108.664 630.902C108.571 630.967 108.464 631 108.342 631C108.212 631 108.1 630.967 108.006 630.902C107.922 630.837 107.88 630.748 107.88 630.636ZM108.888 618.876C108.711 618.876 108.622 618.759 108.622 618.526C108.622 618.293 108.758 618.101 109.028 617.952C109.308 617.803 109.584 617.728 109.854 617.728C110.097 617.728 110.405 617.807 110.778 617.966C111.152 618.125 111.46 618.204 111.702 618.204C111.945 618.204 112.155 618.139 112.332 618.008C112.51 617.868 112.626 617.798 112.682 617.798C112.766 617.798 112.832 617.835 112.878 617.91C112.934 617.975 112.962 618.045 112.962 618.12C112.962 618.381 112.832 618.582 112.57 618.722C112.309 618.853 112.048 618.918 111.786 618.918C111.534 618.918 111.222 618.839 110.848 618.68C110.484 618.512 110.176 618.428 109.924 618.428C109.691 618.428 109.472 618.503 109.266 618.652C109.061 618.801 108.935 618.876 108.888 618.876ZM115.136 630.608C115.136 630.561 115.14 630.529 115.15 630.51L118.076 621.004C118.141 620.789 118.323 620.682 118.622 620.682C118.92 620.682 119.107 620.789 119.182 621.004L122.094 630.51C122.094 630.519 122.094 630.533 122.094 630.552C122.103 630.571 122.108 630.585 122.108 630.594C122.108 630.706 122.047 630.804 121.926 630.888C121.804 630.963 121.678 631 121.548 631C121.37 631 121.254 630.921 121.198 630.762L120.554 628.606H116.676L116.032 630.762C115.994 630.921 115.873 631 115.668 631C115.537 631 115.416 630.963 115.304 630.888C115.192 630.813 115.136 630.72 115.136 630.608ZM116.914 627.808H120.316L118.622 622.166L116.914 627.808Z" fill="#F5F5F5"/>
<path d="M48.528 650.528C48.528 650.411 48.5707 650.304 48.656 650.208C48.7413 650.112 48.848 650.064 48.976 650.064C49.0187 650.064 49.056 650.069 49.088 650.08L51.104 650.784L51.024 648.704C51.0347 648.437 51.1787 648.304 51.456 648.304C51.7333 648.304 51.8773 648.437 51.888 648.704L51.808 650.8L53.824 650.08C53.856 650.069 53.904 650.064 53.968 650.064C54.0747 650.064 54.1653 650.117 54.24 650.224C54.3253 650.32 54.368 650.427 54.368 650.544C54.368 650.747 54.2773 650.869 54.096 650.912L52.096 651.488L53.392 653.232C53.4347 653.285 53.456 653.36 53.456 653.456C53.456 653.584 53.408 653.691 53.312 653.776C53.216 653.861 53.104 653.904 52.976 653.904C52.8373 653.904 52.736 653.851 52.672 653.744L51.456 651.952L50.24 653.76C50.176 653.856 50.0853 653.904 49.968 653.904C49.8613 653.904 49.7493 653.867 49.632 653.792C49.5147 653.707 49.456 653.6 49.456 653.472C49.456 653.387 49.488 653.301 49.552 653.216L50.832 651.52L48.8 650.912C48.6187 650.869 48.528 650.741 48.528 650.528ZM55.4186 650.528C55.4186 650.411 55.4613 650.304 55.5466 650.208C55.632 650.112 55.7386 650.064 55.8666 650.064C55.9093 650.064 55.9466 650.069 55.9786 650.08L57.9946 650.784L57.9146 648.704C57.9253 648.437 58.0693 648.304 58.3466 648.304C58.624 648.304 58.768 648.437 58.7786 648.704L58.6986 650.8L60.7146 650.08C60.7466 650.069 60.7946 650.064 60.8586 650.064C60.9653 650.064 61.056 650.117 61.1306 650.224C61.216 650.32 61.2586 650.427 61.2586 650.544C61.2586 650.747 61.168 650.869 60.9866 650.912L58.9866 651.488L60.2826 653.232C60.3253 653.285 60.3466 653.36 60.3466 653.456C60.3466 653.584 60.2986 653.691 60.2026 653.776C60.1066 653.861 59.9946 653.904 59.8666 653.904C59.728 653.904 59.6266 653.851 59.5626 653.744L58.3466 651.952L57.1306 653.76C57.0666 653.856 56.976 653.904 56.8586 653.904C56.752 653.904 56.64 653.867 56.5226 653.792C56.4053 653.707 56.3466 653.6 56.3466 653.472C56.3466 653.387 56.3786 653.301 56.4426 653.216L57.7226 651.52L55.6906 650.912C55.5093 650.869 55.4186 650.741 55.4186 650.528ZM62.3092 650.528C62.3092 650.411 62.3519 650.304 62.4373 650.208C62.5226 650.112 62.6293 650.064 62.7573 650.064C62.7999 650.064 62.8373 650.069 62.8693 650.08L64.8853 650.784L64.8053 648.704C64.8159 648.437 64.9599 648.304 65.2373 648.304C65.5146 648.304 65.6586 648.437 65.6693 648.704L65.5893 650.8L67.6053 650.08C67.6373 650.069 67.6853 650.064 67.7493 650.064C67.8559 650.064 67.9466 650.117 68.0213 650.224C68.1066 650.32 68.1493 650.427 68.1493 650.544C68.1493 650.747 68.0586 650.869 67.8773 650.912L65.8773 651.488L67.1733 653.232C67.2159 653.285 67.2373 653.36 67.2373 653.456C67.2373 653.584 67.1893 653.691 67.0933 653.776C66.9973 653.861 66.8853 653.904 66.7573 653.904C66.6186 653.904 66.5173 653.851 66.4533 653.744L65.2373 651.952L64.0213 653.76C63.9573 653.856 63.8666 653.904 63.7493 653.904C63.6426 653.904 63.5306 653.867 63.4133 653.792C63.2959 653.707 63.2373 653.6 63.2373 653.472C63.2373 653.387 63.2693 653.301 63.3333 653.216L64.6133 651.52L62.5813 650.912C62.3999 650.869 62.3092 650.741 62.3092 650.528ZM69.1999 650.528C69.1999 650.411 69.2425 650.304 69.3279 650.208C69.4132 650.112 69.5199 650.064 69.6479 650.064C69.6905 650.064 69.7279 650.069 69.7599 650.08L71.7759 650.784L71.6959 648.704C71.7065 648.437 71.8505 648.304 72.1279 648.304C72.4052 648.304 72.5492 648.437 72.5599 648.704L72.4799 650.8L74.4959 650.08C74.5279 650.069 74.5759 650.064 74.6399 650.064C74.7465 650.064 74.8372 650.117 74.9119 650.224C74.9972 650.32 75.0399 650.427 75.0399 650.544C75.0399 650.747 74.9492 650.869 74.7679 650.912L72.7679 651.488L74.0639 653.232C74.1065 653.285 74.1279 653.36 74.1279 653.456C74.1279 653.584 74.0799 653.691 73.9839 653.776C73.8879 653.861 73.7759 653.904 73.6479 653.904C73.5092 653.904 73.4079 653.851 73.3439 653.744L72.1279 651.952L70.9119 653.76C70.8479 653.856 70.7572 653.904 70.6399 653.904C70.5332 653.904 70.4212 653.867 70.3039 653.792C70.1865 653.707 70.1279 653.6 70.1279 653.472C70.1279 653.387 70.1599 653.301 70.2239 653.216L71.5039 651.52L69.4719 650.912C69.2905 650.869 69.1999 650.741 69.1999 650.528ZM76.0905 650.528C76.0905 650.411 76.1332 650.304 76.2185 650.208C76.3038 650.112 76.4105 650.064 76.5385 650.064C76.5812 650.064 76.6185 650.069 76.6505 650.08L78.6665 650.784L78.5865 648.704C78.5972 648.437 78.7412 648.304 79.0185 648.304C79.2958 648.304 79.4398 648.437 79.4505 648.704L79.3705 650.8L81.3865 650.08C81.4185 650.069 81.4665 650.064 81.5305 650.064C81.6372 650.064 81.7278 650.117 81.8025 650.224C81.8878 650.32 81.9305 650.427 81.9305 650.544C81.9305 650.747 81.8398 650.869 81.6585 650.912L79.6585 651.488L80.9545 653.232C80.9972 653.285 81.0185 653.36 81.0185 653.456C81.0185 653.584 80.9705 653.691 80.8745 653.776C80.7785 653.861 80.6665 653.904 80.5385 653.904C80.3998 653.904 80.2985 653.851 80.2345 653.744L79.0185 651.952L77.8025 653.76C77.7385 653.856 77.6478 653.904 77.5305 653.904C77.4238 653.904 77.3118 653.867 77.1945 653.792C77.0772 653.707 77.0185 653.6 77.0185 653.472C77.0185 653.387 77.0505 653.301 77.1145 653.216L78.3945 651.52L76.3625 650.912C76.1812 650.869 76.0905 650.741 76.0905 650.528ZM82.9811 650.528C82.9811 650.411 83.0238 650.304 83.1091 650.208C83.1945 650.112 83.3011 650.064 83.4291 650.064C83.4718 650.064 83.5091 650.069 83.5411 650.08L85.5571 650.784L85.4771 648.704C85.4878 648.437 85.6318 648.304 85.9091 648.304C86.1865 648.304 86.3305 648.437 86.3411 648.704L86.2611 650.8L88.2771 650.08C88.3091 650.069 88.3571 650.064 88.4211 650.064C88.5278 650.064 88.6185 650.117 88.6931 650.224C88.7785 650.32 88.8211 650.427 88.8211 650.544C88.8211 650.747 88.7305 650.869 88.5491 650.912L86.5491 651.488L87.8451 653.232C87.8878 653.285 87.9091 653.36 87.9091 653.456C87.9091 653.584 87.8611 653.691 87.7651 653.776C87.6691 653.861 87.5571 653.904 87.4291 653.904C87.2905 653.904 87.1891 653.851 87.1251 653.744L85.9091 651.952L84.6931 653.76C84.6291 653.856 84.5385 653.904 84.4211 653.904C84.3145 653.904 84.2025 653.867 84.0851 653.792C83.9678 653.707 83.9091 653.6 83.9091 653.472C83.9091 653.387 83.9411 653.301 84.0051 653.216L85.2851 651.52L83.2531 650.912C83.0718 650.869 82.9811 650.741 82.9811 650.528ZM89.8717 650.528C89.8717 650.411 89.9144 650.304 89.9998 650.208C90.0851 650.112 90.1918 650.064 90.3198 650.064C90.3624 650.064 90.3998 650.069 90.4318 650.08L92.4478 650.784L92.3678 648.704C92.3784 648.437 92.5224 648.304 92.7998 648.304C93.0771 648.304 93.2211 648.437 93.2318 648.704L93.1518 650.8L95.1678 650.08C95.1998 650.069 95.2478 650.064 95.3118 650.064C95.4184 650.064 95.5091 650.117 95.5838 650.224C95.6691 650.32 95.7118 650.427 95.7118 650.544C95.7118 650.747 95.6211 650.869 95.4398 650.912L93.4398 651.488L94.7358 653.232C94.7784 653.285 94.7998 653.36 94.7998 653.456C94.7998 653.584 94.7518 653.691 94.6558 653.776C94.5598 653.861 94.4478 653.904 94.3198 653.904C94.1811 653.904 94.0798 653.851 94.0158 653.744L92.7998 651.952L91.5838 653.76C91.5198 653.856 91.4291 653.904 91.3118 653.904C91.2051 653.904 91.0931 653.867 90.9758 653.792C90.8584 653.707 90.7998 653.6 90.7998 653.472C90.7998 653.387 90.8318 653.301 90.8958 653.216L92.1758 651.52L90.1438 650.912C89.9624 650.869 89.8717 650.741 89.8717 650.528ZM96.7624 650.528C96.7624 650.411 96.805 650.304 96.8904 650.208C96.9757 650.112 97.0824 650.064 97.2104 650.064C97.253 650.064 97.2904 650.069 97.3224 650.08L99.3384 650.784L99.2584 648.704C99.269 648.437 99.413 648.304 99.6904 648.304C99.9677 648.304 100.112 648.437 100.122 648.704L100.042 650.8L102.058 650.08C102.09 650.069 102.138 650.064 102.202 650.064C102.309 650.064 102.4 650.117 102.474 650.224C102.56 650.32 102.602 650.427 102.602 650.544C102.602 650.747 102.512 650.869 102.33 650.912L100.33 651.488L101.626 653.232C101.669 653.285 101.69 653.36 101.69 653.456C101.69 653.584 101.642 653.691 101.546 653.776C101.45 653.861 101.338 653.904 101.21 653.904C101.072 653.904 100.97 653.851 100.906 653.744L99.6904 651.952L98.4744 653.76C98.4104 653.856 98.3197 653.904 98.2024 653.904C98.0957 653.904 97.9837 653.867 97.8664 653.792C97.749 653.707 97.6904 653.6 97.6904 653.472C97.6904 653.387 97.7224 653.301 97.7864 653.216L99.0664 651.52L97.0344 650.912C96.853 650.869 96.7624 650.741 96.7624 650.528Z" fill="white" fill-opacity="0.5"/>
<rect x="48" y="707" width="279" height="44" rx="22" fill="url(#paint0_linear)"/>
<path d="M159.897 734.37V722.454C159.897 722.286 159.957 722.142 160.077 722.022C160.197 721.902 160.347 721.842 160.527 721.842H163.947C166.707 721.842 168.087 723.066 168.087 725.514C168.087 726.534 167.859 727.338 167.403 727.926C166.947 728.502 166.329 728.886 165.549 729.078L168.069 733.812C168.117 733.896 168.141 733.986 168.141 734.082C168.141 734.322 168.015 734.544 167.763 734.748C167.523 734.952 167.265 735.054 166.989 735.054C166.677 735.054 166.425 734.868 166.233 734.496L163.605 729.348H161.787V734.37C161.787 734.562 161.691 734.718 161.499 734.838C161.319 734.946 161.097 735 160.833 735C160.581 735 160.359 734.946 160.167 734.838C159.987 734.718 159.897 734.562 159.897 734.37ZM161.787 727.818H163.947C165.435 727.818 166.179 727.104 166.179 725.676C166.179 724.248 165.435 723.534 163.947 723.534H161.787V727.818ZM169.184 731.562V729.852C169.184 728.904 169.55 728.088 170.282 727.404C171.014 726.708 171.896 726.36 172.928 726.36C173.912 726.36 174.752 726.678 175.448 727.314C176.156 727.938 176.51 728.73 176.51 729.69C176.51 730.05 176.468 730.344 176.384 730.572C176.3 730.788 176.168 730.944 175.988 731.04C175.808 731.124 175.64 731.178 175.484 731.202C175.328 731.226 175.124 731.238 174.872 731.238H171.074V731.652C171.074 732.252 171.29 732.732 171.722 733.092C172.154 733.44 172.718 733.614 173.414 733.614C173.906 733.614 174.368 733.5 174.8 733.272C175.244 733.044 175.514 732.93 175.61 732.93C175.814 732.93 175.988 733.026 176.132 733.218C176.276 733.41 176.348 733.596 176.348 733.776C176.348 734.076 176.06 734.382 175.484 734.694C174.908 734.994 174.2 735.144 173.36 735.144C172.136 735.144 171.134 734.814 170.354 734.154C169.574 733.494 169.184 732.63 169.184 731.562ZM171.074 730.068H174.062C174.326 730.068 174.5 730.032 174.584 729.96C174.68 729.888 174.728 729.744 174.728 729.528C174.728 729.048 174.554 728.64 174.206 728.304C173.858 727.968 173.426 727.8 172.91 727.8C172.406 727.8 171.974 727.962 171.614 728.286C171.254 728.598 171.074 729 171.074 729.492V730.068ZM177.385 736.566C177.385 735.726 177.847 735.084 178.771 734.64C178.207 734.4 177.925 734.004 177.925 733.452C177.925 732.924 178.225 732.468 178.825 732.084C178.117 731.532 177.763 730.776 177.763 729.816V729.312C177.763 728.448 178.069 727.74 178.681 727.188C179.305 726.636 180.115 726.36 181.111 726.36C181.951 726.36 182.647 726.564 183.199 726.972C183.547 726.168 183.937 725.766 184.369 725.766C184.597 725.766 184.783 725.838 184.927 725.982C185.071 726.114 185.143 726.258 185.143 726.414C185.143 726.606 185.041 726.756 184.837 726.864C184.453 727.032 184.153 727.272 183.937 727.584C184.321 728.064 184.513 728.64 184.513 729.312V729.816C184.513 730.68 184.195 731.394 183.559 731.958C182.923 732.522 182.107 732.804 181.111 732.804C180.643 732.804 180.229 732.732 179.869 732.588C179.641 732.744 179.527 732.912 179.527 733.092C179.527 733.332 179.713 733.506 180.085 733.614C180.469 733.722 180.925 733.806 181.453 733.866C181.993 733.926 182.527 734.016 183.055 734.136C183.595 734.244 184.051 734.484 184.423 734.856C184.807 735.228 184.999 735.72 184.999 736.332C184.999 737.232 184.639 737.91 183.919 738.366C183.211 738.822 182.311 739.05 181.219 739.05C180.127 739.05 179.215 738.822 178.483 738.366C177.751 737.922 177.385 737.322 177.385 736.566ZM179.167 736.368C179.167 736.8 179.353 737.142 179.725 737.394C180.109 737.658 180.601 737.79 181.201 737.79C181.789 737.79 182.263 737.664 182.623 737.412C182.983 737.16 183.163 736.818 183.163 736.386C183.163 736.11 183.079 735.876 182.911 735.684C182.743 735.504 182.491 735.366 182.155 735.27C181.831 735.186 181.549 735.126 181.309 735.09C181.081 735.066 180.769 735.042 180.373 735.018C179.569 735.318 179.167 735.768 179.167 736.368ZM179.599 729.798C179.599 730.326 179.737 730.758 180.013 731.094C180.289 731.43 180.667 731.598 181.147 731.598C181.615 731.598 181.987 731.436 182.263 731.112C182.539 730.776 182.677 730.344 182.677 729.816V729.312C182.677 728.808 182.539 728.394 182.263 728.07C181.987 727.734 181.609 727.566 181.129 727.566C180.661 727.566 180.289 727.734 180.013 728.07C179.737 728.394 179.599 728.808 179.599 729.312V729.798ZM186.203 723.336C186.203 723.06 186.311 722.826 186.527 722.634C186.743 722.442 187.001 722.346 187.301 722.346C187.601 722.346 187.859 722.442 188.075 722.634C188.291 722.826 188.399 723.06 188.399 723.336C188.399 723.6 188.291 723.834 188.075 724.038C187.859 724.23 187.601 724.326 187.301 724.326C187.001 724.326 186.743 724.23 186.527 724.038C186.311 723.834 186.203 723.6 186.203 723.336ZM186.365 734.37V727.08C186.365 726.9 186.449 726.756 186.617 726.648C186.797 726.528 187.025 726.468 187.301 726.468C187.577 726.468 187.805 726.528 187.985 726.648C188.165 726.756 188.255 726.9 188.255 727.08V734.37C188.255 734.526 188.159 734.67 187.967 734.802C187.787 734.934 187.565 735 187.301 735C187.037 735 186.815 734.934 186.635 734.802C186.455 734.67 186.365 734.526 186.365 734.37ZM189.729 733.704C189.729 733.524 189.789 733.338 189.909 733.146C190.041 732.954 190.197 732.858 190.377 732.858C190.485 732.858 190.635 732.93 190.827 733.074C191.019 733.206 191.277 733.344 191.601 733.488C191.925 733.62 192.315 733.686 192.771 733.686C193.791 733.686 194.301 733.362 194.301 732.714C194.301 732.366 194.151 732.096 193.851 731.904C193.551 731.7 193.185 731.544 192.753 731.436C192.333 731.316 191.913 731.184 191.493 731.04C191.073 730.896 190.713 730.65 190.413 730.302C190.113 729.954 189.963 729.504 189.963 728.952C189.963 728.244 190.215 727.638 190.719 727.134C191.223 726.618 191.997 726.36 193.041 726.36C193.725 726.36 194.343 726.468 194.895 726.684C195.459 726.888 195.741 727.134 195.741 727.422C195.741 727.59 195.669 727.788 195.525 728.016C195.393 728.232 195.225 728.34 195.021 728.34C194.949 728.34 194.703 728.256 194.283 728.088C193.863 727.908 193.461 727.818 193.077 727.818C192.597 727.818 192.231 727.926 191.979 728.142C191.739 728.358 191.619 728.598 191.619 728.862C191.619 729.15 191.769 729.378 192.069 729.546C192.369 729.714 192.735 729.852 193.167 729.96C193.599 730.068 194.025 730.2 194.445 730.356C194.877 730.512 195.243 730.782 195.543 731.166C195.843 731.55 195.993 732.042 195.993 732.642C195.993 733.422 195.717 734.034 195.165 734.478C194.613 734.922 193.833 735.144 192.825 735.144C191.973 735.144 191.241 734.994 190.629 734.694C190.029 734.394 189.729 734.064 189.729 733.704ZM197.492 732.192V723.174C197.492 723.006 197.588 722.862 197.78 722.742C197.972 722.622 198.188 722.562 198.428 722.562C198.668 722.562 198.884 722.622 199.076 722.742C199.28 722.862 199.382 723.006 199.382 723.174V726.468H201.578C201.734 726.468 201.86 726.54 201.956 726.684C202.052 726.816 202.1 726.978 202.1 727.17C202.1 727.362 202.052 727.53 201.956 727.674C201.86 727.806 201.734 727.872 201.578 727.872H199.382V732.192C199.382 732.624 199.472 732.93 199.652 733.11C199.844 733.29 200.174 733.38 200.642 733.38H201.272C201.524 733.38 201.722 733.458 201.866 733.614C202.01 733.77 202.082 733.962 202.082 734.19C202.082 734.418 202.01 734.61 201.866 734.766C201.722 734.922 201.524 735 201.272 735H200.642C198.542 735 197.492 734.064 197.492 732.192ZM203.434 734.37V727.08C203.434 726.9 203.518 726.756 203.686 726.648C203.866 726.528 204.088 726.468 204.352 726.468C204.592 726.468 204.796 726.528 204.964 726.648C205.132 726.756 205.216 726.9 205.216 727.08V727.872C205.42 727.452 205.726 727.098 206.134 726.81C206.554 726.51 207.01 726.36 207.502 726.36H208.078C208.27 726.36 208.438 726.444 208.582 726.612C208.726 726.768 208.798 726.96 208.798 727.188C208.798 727.416 208.726 727.614 208.582 727.782C208.438 727.95 208.27 728.034 208.078 728.034H207.502C206.926 728.034 206.416 728.28 205.972 728.772C205.54 729.264 205.324 729.9 205.324 730.68V734.37C205.324 734.526 205.228 734.67 205.036 734.802C204.844 734.934 204.616 735 204.352 735C204.088 735 203.866 734.934 203.686 734.802C203.518 734.67 203.434 734.526 203.434 734.37ZM209.367 731.562V729.906C209.367 728.958 209.733 728.13 210.465 727.422C211.197 726.714 212.073 726.36 213.093 726.36C214.089 726.36 214.959 726.714 215.703 727.422C216.447 728.118 216.819 728.946 216.819 729.906V731.562C216.819 732.498 216.441 733.332 215.685 734.064C214.941 734.784 214.077 735.144 213.093 735.144C212.097 735.144 211.227 734.784 210.483 734.064C209.739 733.344 209.367 732.51 209.367 731.562ZM211.257 731.562C211.257 732.054 211.437 732.498 211.797 732.894C212.157 733.278 212.589 733.47 213.093 733.47C213.585 733.47 214.011 733.278 214.371 732.894C214.743 732.498 214.929 732.054 214.929 731.562V729.906C214.929 729.426 214.743 728.994 214.371 728.61C214.011 728.226 213.585 728.034 213.093 728.034C212.589 728.034 212.157 728.226 211.797 728.61C211.437 728.994 211.257 729.426 211.257 729.906V731.562Z" fill="white"/>
</g>
<rect x="48" y="417" width="279" height="2" fill="#2FCCC3"/>
<path d="M49.064 371.636V362.116C49.064 361.883 49.218 361.766 49.526 361.766C49.7873 361.766 50.03 361.981 50.254 362.41L54.034 369.858V362.102C54.034 361.878 54.188 361.766 54.496 361.766C54.804 361.766 54.958 361.878 54.958 362.102V371.636C54.958 371.748 54.9113 371.837 54.818 371.902C54.7247 371.967 54.6173 372 54.496 372C54.2627 372 54.0573 371.823 53.88 371.468L49.988 363.894V371.636C49.988 371.748 49.9413 371.837 49.848 371.902C49.7547 371.967 49.6473 372 49.526 372C49.3953 372 49.2833 371.967 49.19 371.902C49.106 371.837 49.064 371.748 49.064 371.636ZM56.9774 369.088V364.748C56.9774 363.721 57.2387 362.97 57.7614 362.494C58.2934 362.009 59.0027 361.766 59.8894 361.766C60.7761 361.766 61.4807 362.009 62.0034 362.494C62.5354 362.97 62.8014 363.721 62.8014 364.748V369.088C62.8014 370.124 62.5354 370.885 62.0034 371.37C61.4807 371.846 60.7761 372.084 59.8894 372.084C59.0027 372.084 58.2934 371.846 57.7614 371.37C57.2387 370.885 56.9774 370.124 56.9774 369.088ZM57.9014 369.088C57.9014 370.516 58.5641 371.23 59.8894 371.23C61.2147 371.23 61.8774 370.516 61.8774 369.088V364.748C61.8774 363.329 61.2147 362.62 59.8894 362.62C58.5641 362.62 57.9014 363.329 57.9014 364.748V369.088ZM64.814 371.636V362.214C64.814 361.915 64.968 361.766 65.276 361.766C65.5467 361.766 65.794 361.981 66.018 362.41L68.426 367.058L70.834 362.41C71.058 361.981 71.3053 361.766 71.576 361.766C71.884 361.766 72.038 361.915 72.038 362.214V371.636C72.038 371.748 71.9913 371.837 71.898 371.902C71.814 371.967 71.7067 372 71.576 372C71.4547 372 71.3473 371.967 71.254 371.902C71.1607 371.837 71.114 371.748 71.114 371.636V363.768L68.79 368.164C68.6873 368.36 68.5613 368.458 68.412 368.458C68.272 368.458 68.1507 368.36 68.048 368.164L65.738 363.726V371.636C65.738 371.748 65.6913 371.837 65.598 371.902C65.5047 371.967 65.3973 372 65.276 372C65.1453 372 65.0333 371.967 64.94 371.902C64.856 371.837 64.814 371.748 64.814 371.636ZM74.1656 371.65V362.116C74.1656 362.004 74.2076 361.92 74.2916 361.864C74.3756 361.799 74.4736 361.766 74.5856 361.766H76.8816C77.3109 361.766 77.6842 361.799 78.0016 361.864C78.3189 361.929 78.6129 362.046 78.8836 362.214C79.1636 362.382 79.3736 362.629 79.5136 362.956C79.6629 363.273 79.7376 363.67 79.7376 364.146C79.7376 364.725 79.6302 365.215 79.4156 365.616C79.2009 366.017 78.9116 366.297 78.5476 366.456C79.0142 366.643 79.3689 366.923 79.6116 367.296C79.8636 367.669 79.9896 368.192 79.9896 368.864V369.116C79.9896 370.124 79.7376 370.857 79.2336 371.314C78.7296 371.771 78.0576 372 77.2176 372H74.5856C74.4549 372 74.3522 371.967 74.2776 371.902C74.2029 371.827 74.1656 371.743 74.1656 371.65ZM75.0756 371.146H77.1056C78.4122 371.146 79.0656 370.455 79.0656 369.074V368.836C79.0656 367.511 78.4122 366.848 77.1056 366.848H75.0756V371.146ZM75.0756 366.05H76.9096C77.5722 366.05 78.0529 365.915 78.3516 365.644C78.6596 365.364 78.8136 364.897 78.8136 364.244C78.8136 363.637 78.6456 363.217 78.3096 362.984C77.9736 362.741 77.4882 362.62 76.8536 362.62H75.0756V366.05ZM81.6988 371.636V362.102C81.6988 361.897 81.8154 361.785 82.0488 361.766H84.5268C85.4321 361.766 86.1601 361.981 86.7108 362.41C87.2708 362.839 87.5508 363.544 87.5508 364.524C87.5508 366.073 86.8228 366.974 85.3668 367.226L87.5228 371.37C87.5601 371.417 87.5788 371.477 87.5788 371.552C87.5788 371.673 87.5228 371.785 87.4108 371.888C87.2988 371.981 87.1774 372.028 87.0468 372.028C86.8788 372.028 86.7154 371.865 86.5568 371.538L84.4008 367.338H82.6228V371.636C82.6228 371.748 82.5761 371.837 82.4828 371.902C82.3894 371.967 82.2821 372 82.1608 372C82.0301 372 81.9181 371.967 81.8248 371.902C81.7408 371.837 81.6988 371.748 81.6988 371.636ZM82.6228 366.54H84.5268C85.9268 366.54 86.6268 365.882 86.6268 364.566C86.6268 363.269 85.9268 362.62 84.5268 362.62H82.6228V366.54ZM89.1089 371.636V362.116C89.1089 362.004 89.1509 361.92 89.2349 361.864C89.3189 361.799 89.4169 361.766 89.5289 361.766H94.5129C94.7463 361.766 94.8629 361.901 94.8629 362.172C94.8629 362.293 94.8303 362.401 94.7649 362.494C94.7089 362.578 94.6249 362.62 94.5129 362.62H90.0329V366.47H92.2309C92.3429 366.47 92.4269 366.512 92.4829 366.596C92.5483 366.671 92.5809 366.769 92.5809 366.89C92.5809 367.142 92.4643 367.268 92.2309 367.268H90.0329V371.146H94.5129C94.6156 371.146 94.6996 371.188 94.7649 371.272C94.8303 371.356 94.8629 371.459 94.8629 371.58C94.8629 371.86 94.7463 372 94.5129 372H89.5289C89.4169 372 89.3189 371.967 89.2349 371.902C89.1509 371.837 89.1089 371.748 89.1089 371.636Z" fill="#F5F5F5"/>
<path d="M271.792 435.58V427.636C271.792 427.524 271.832 427.428 271.912 427.348C271.992 427.268 272.092 427.228 272.212 427.228H274.492C276.332 427.228 277.252 428.044 277.252 429.676C277.252 430.356 277.1 430.892 276.796 431.284C276.492 431.668 276.08 431.924 275.56 432.052L277.24 435.208C277.272 435.264 277.288 435.324 277.288 435.388C277.288 435.548 277.204 435.696 277.036 435.832C276.876 435.968 276.704 436.036 276.52 436.036C276.312 436.036 276.144 435.912 276.016 435.664L274.264 432.232H273.052V435.58C273.052 435.708 272.988 435.812 272.86 435.892C272.74 435.964 272.592 436 272.416 436C272.248 436 272.1 435.964 271.972 435.892C271.852 435.812 271.792 435.708 271.792 435.58ZM273.052 431.212H274.492C275.484 431.212 275.98 430.736 275.98 429.784C275.98 428.832 275.484 428.356 274.492 428.356H273.052V431.212ZM278.495 435.58V427.648C278.495 427.52 278.551 427.42 278.663 427.348C278.775 427.268 278.907 427.228 279.059 427.228H283.331C283.467 427.228 283.571 427.284 283.643 427.396C283.715 427.508 283.751 427.636 283.751 427.78C283.751 427.94 283.711 428.076 283.631 428.188C283.559 428.3 283.459 428.356 283.331 428.356H279.767V431.104H281.615C281.743 431.104 281.843 431.156 281.915 431.26C281.995 431.356 282.035 431.476 282.035 431.62C282.035 431.748 281.999 431.864 281.927 431.968C281.855 432.064 281.751 432.112 281.615 432.112H279.767V434.872H283.331C283.459 434.872 283.559 434.928 283.631 435.04C283.711 435.152 283.751 435.288 283.751 435.448C283.751 435.592 283.715 435.72 283.643 435.832C283.571 435.944 283.467 436 283.331 436H279.059C278.907 436 278.775 435.964 278.663 435.892C278.551 435.812 278.495 435.708 278.495 435.58ZM284.587 433.396V429.904C284.587 428.976 284.831 428.3 285.319 427.876C285.807 427.444 286.459 427.228 287.275 427.228C288.091 427.228 288.743 427.444 289.231 427.876C289.727 428.3 289.975 428.976 289.975 429.904V433.396C289.975 434.236 289.771 434.872 289.363 435.304C288.955 435.736 288.403 435.984 287.707 436.048V436.888C287.707 437.016 287.663 437.116 287.575 437.188C287.495 437.268 287.395 437.308 287.275 437.308C287.163 437.308 287.063 437.268 286.975 437.188C286.895 437.116 286.855 437.016 286.855 436.888V436.048C286.159 435.984 285.607 435.74 285.199 435.316C284.791 434.884 284.587 434.244 284.587 433.396ZM285.859 433.396C285.859 434.244 286.191 434.736 286.855 434.872V434.14C286.855 433.868 286.995 433.732 287.275 433.732C287.395 433.732 287.495 433.768 287.575 433.84C287.663 433.904 287.707 434.004 287.707 434.14V434.86C288.371 434.716 288.703 434.228 288.703 433.396V429.904C288.703 429.384 288.579 428.996 288.331 428.74C288.083 428.484 287.731 428.356 287.275 428.356C286.331 428.356 285.859 428.872 285.859 429.904V433.396ZM291.432 433.396V427.636C291.432 427.5 291.492 427.4 291.612 427.336C291.74 427.264 291.892 427.228 292.068 427.228C292.244 427.228 292.392 427.264 292.512 427.336C292.64 427.4 292.704 427.5 292.704 427.636V433.396C292.704 433.916 292.832 434.304 293.088 434.56C293.344 434.816 293.704 434.944 294.168 434.944C295.152 434.944 295.644 434.428 295.644 433.396V427.636C295.644 427.5 295.704 427.4 295.824 427.336C295.952 427.264 296.104 427.228 296.28 427.228C296.456 427.228 296.604 427.264 296.724 427.336C296.852 427.4 296.916 427.5 296.916 427.636V433.396C296.916 434.316 296.664 434.992 296.16 435.424C295.664 435.856 295 436.072 294.168 436.072C293.344 436.072 292.68 435.856 292.176 435.424C291.68 434.992 291.432 434.316 291.432 433.396ZM298.464 435.58V427.648C298.464 427.52 298.52 427.42 298.632 427.348C298.744 427.268 298.876 427.228 299.028 427.228H303.3C303.436 427.228 303.54 427.284 303.612 427.396C303.684 427.508 303.72 427.636 303.72 427.78C303.72 427.94 303.68 428.076 303.6 428.188C303.528 428.3 303.428 428.356 303.3 428.356H299.736V431.104H301.584C301.712 431.104 301.812 431.156 301.884 431.26C301.964 431.356 302.004 431.476 302.004 431.62C302.004 431.748 301.968 431.864 301.896 431.968C301.824 432.064 301.72 432.112 301.584 432.112H299.736V434.872H303.3C303.428 434.872 303.528 434.928 303.6 435.04C303.68 435.152 303.72 435.288 303.72 435.448C303.72 435.592 303.684 435.72 303.612 435.832C303.54 435.944 303.436 436 303.3 436H299.028C298.876 436 298.744 435.964 298.632 435.892C298.52 435.812 298.464 435.708 298.464 435.58ZM304.745 435.58V427.636C304.745 427.524 304.785 427.428 304.865 427.348C304.945 427.268 305.045 427.228 305.165 427.228H307.445C309.285 427.228 310.205 428.044 310.205 429.676C310.205 430.356 310.053 430.892 309.749 431.284C309.445 431.668 309.033 431.924 308.513 432.052L310.193 435.208C310.225 435.264 310.241 435.324 310.241 435.388C310.241 435.548 310.157 435.696 309.989 435.832C309.829 435.968 309.657 436.036 309.473 436.036C309.265 436.036 309.097 435.912 308.969 435.664L307.217 432.232H306.005V435.58C306.005 435.708 305.941 435.812 305.813 435.892C305.693 435.964 305.545 436 305.369 436C305.201 436 305.053 435.964 304.925 435.892C304.805 435.812 304.745 435.708 304.745 435.58ZM306.005 431.212H307.445C308.437 431.212 308.933 430.736 308.933 429.784C308.933 428.832 308.437 428.356 307.445 428.356H306.005V431.212ZM311.448 435.58V427.636C311.448 427.5 311.508 427.4 311.628 427.336C311.756 427.264 311.908 427.228 312.084 427.228C312.26 427.228 312.408 427.264 312.528 427.336C312.656 427.4 312.72 427.5 312.72 427.636V435.58C312.72 435.708 312.656 435.812 312.528 435.892C312.408 435.964 312.26 436 312.084 436C311.916 436 311.768 435.964 311.64 435.892C311.512 435.812 311.448 435.708 311.448 435.58ZM314.308 435.592V427.636C314.308 427.524 314.36 427.428 314.464 427.348C314.576 427.268 314.712 427.228 314.872 427.228H316.996C317.812 427.228 318.464 427.444 318.952 427.876C319.448 428.308 319.696 428.984 319.696 429.904V433.324C319.696 434.244 319.448 434.92 318.952 435.352C318.464 435.784 317.812 436 316.996 436H314.872C314.712 436 314.576 435.96 314.464 435.88C314.36 435.8 314.308 435.704 314.308 435.592ZM315.58 434.872H316.996C317.948 434.872 318.424 434.356 318.424 433.324V429.904C318.424 428.872 317.948 428.356 316.996 428.356H315.58V434.872ZM321.103 433.396V429.904C321.103 428.984 321.347 428.308 321.835 427.876C322.323 427.444 322.975 427.228 323.791 427.228C324.607 427.228 325.259 427.444 325.747 427.876C326.243 428.308 326.491 428.984 326.491 429.904V433.396C326.491 434.316 326.243 434.992 325.747 435.424C325.259 435.856 324.607 436.072 323.791 436.072C322.975 436.072 322.323 435.856 321.835 435.424C321.347 434.992 321.103 434.316 321.103 433.396ZM322.375 433.396C322.375 434.428 322.847 434.944 323.791 434.944C324.247 434.944 324.599 434.816 324.847 434.56C325.095 434.304 325.219 433.916 325.219 433.396V429.904C325.219 429.384 325.095 428.996 324.847 428.74C324.599 428.484 324.247 428.356 323.791 428.356C322.847 428.356 322.375 428.872 322.375 429.904V433.396Z" fill="#2FC0BA"/>
<path d="M263.778 426H259.222L256 429.222V433.778L259.222 437H263.778L267 433.778V429.222L263.778 426ZM262.005 434.269H260.995V433.091H262.005V434.269ZM262.005 432.698H260.995V428.731H262.005V432.698Z" fill="#2FCCC3"/>
<rect opacity="0.5" x="48" y="506" width="279" height="1" fill="#F5F5F5"/>
<path d="M48.294 460.608C48.294 460.561 48.2987 460.529 48.308 460.51L51.234 451.004C51.2993 450.789 51.4813 450.682 51.78 450.682C52.0787 450.682 52.2653 450.789 52.34 451.004L55.252 460.51C55.252 460.519 55.252 460.533 55.252 460.552C55.2613 460.571 55.266 460.585 55.266 460.594C55.266 460.706 55.2053 460.804 55.084 460.888C54.9627 460.963 54.8367 461 54.706 461C54.5287 461 54.412 460.921 54.356 460.762L53.712 458.606H49.834L49.19 460.762C49.1527 460.921 49.0313 461 48.826 461C48.6953 461 48.574 460.963 48.462 460.888C48.35 460.813 48.294 460.72 48.294 460.608ZM50.072 457.808H53.474L51.78 452.166L50.072 457.808ZM56.6245 460.636V451.102C56.6245 450.897 56.7552 450.785 57.0165 450.766H59.5925C60.4699 450.766 61.1699 451.004 61.6925 451.48C62.2152 451.956 62.4765 452.707 62.4765 453.734V453.874C62.4765 454.901 62.2105 455.657 61.6785 456.142C61.1559 456.618 60.4512 456.856 59.5645 456.856H57.5485V460.636C57.5485 460.748 57.5019 460.837 57.4085 460.902C57.3152 460.967 57.2079 461 57.0865 461C56.9559 461 56.8439 460.967 56.7505 460.902C56.6665 460.837 56.6245 460.748 56.6245 460.636ZM57.5485 456.058H59.5645C60.1992 456.058 60.6892 455.881 61.0345 455.526C61.3799 455.171 61.5525 454.635 61.5525 453.916V453.748C61.5525 452.329 60.8899 451.62 59.5645 451.62H57.5485V456.058ZM64.0074 460.636V451.116C64.0074 451.004 64.0494 450.92 64.1334 450.864C64.2174 450.799 64.3154 450.766 64.4274 450.766H69.4114C69.6447 450.766 69.7614 450.901 69.7614 451.172C69.7614 451.293 69.7287 451.401 69.6634 451.494C69.6074 451.578 69.5234 451.62 69.4114 451.62H64.9314V455.47H67.1294C67.2414 455.47 67.3254 455.512 67.3814 455.596C67.4467 455.671 67.4794 455.769 67.4794 455.89C67.4794 456.142 67.3627 456.268 67.1294 456.268H64.9314V460.146H69.4114C69.514 460.146 69.598 460.188 69.6634 460.272C69.7287 460.356 69.7614 460.459 69.7614 460.58C69.7614 460.86 69.6447 461 69.4114 461H64.4274C64.3154 461 64.2174 460.967 64.1334 460.902C64.0494 460.837 64.0074 460.748 64.0074 460.636ZM71.1167 460.636V451.102C71.1167 450.878 71.2707 450.766 71.5787 450.766C71.8867 450.766 72.0407 450.878 72.0407 451.102V460.146H76.0307C76.2361 460.146 76.3387 460.286 76.3387 460.566C76.3387 460.855 76.2361 461 76.0307 461H71.5367C71.4247 461 71.3267 460.967 71.2427 460.902C71.1587 460.837 71.1167 460.748 71.1167 460.636ZM77.5972 460.636V451.102C77.5972 450.878 77.7512 450.766 78.0592 450.766C78.3672 450.766 78.5212 450.878 78.5212 451.102V460.146H82.5112C82.7165 460.146 82.8192 460.286 82.8192 460.566C82.8192 460.855 82.7165 461 82.5112 461H78.0172C77.9052 461 77.8072 460.967 77.7232 460.902C77.6392 460.837 77.5972 460.748 77.5972 460.636ZM84.0777 460.636V451.102C84.0777 450.878 84.2317 450.766 84.5397 450.766C84.8477 450.766 85.0017 450.878 85.0017 451.102V460.636C85.0017 460.748 84.955 460.837 84.8617 460.902C84.7683 460.967 84.661 461 84.5397 461C84.409 461 84.297 460.967 84.2037 460.902C84.1197 460.837 84.0777 460.748 84.0777 460.636ZM87.1265 460.65V451.102C87.1265 451.009 87.1638 450.929 87.2385 450.864C87.3225 450.799 87.4252 450.766 87.5465 450.766H90.0245C90.9112 450.766 91.6205 451.009 92.1525 451.494C92.6845 451.97 92.9505 452.721 92.9505 453.748V458.004C92.9505 459.04 92.6845 459.801 92.1525 460.286C91.6205 460.762 90.9112 461 90.0245 461H87.5465C87.4252 461 87.3225 460.967 87.2385 460.902C87.1638 460.827 87.1265 460.743 87.1265 460.65ZM88.0505 460.146H90.0245C90.6592 460.146 91.1492 459.969 91.4945 459.614C91.8492 459.25 92.0265 458.713 92.0265 458.004V453.748C92.0265 453.039 91.8492 452.507 91.4945 452.152C91.1492 451.797 90.6592 451.62 90.0245 451.62H88.0505V460.146ZM94.8485 458.088V453.748C94.8485 452.721 95.1098 451.97 95.6325 451.494C96.1645 451.009 96.8738 450.766 97.7605 450.766C98.6472 450.766 99.3518 451.009 99.8745 451.494C100.406 451.97 100.672 452.721 100.672 453.748V458.088C100.672 459.124 100.406 459.885 99.8745 460.37C99.3518 460.846 98.6472 461.084 97.7605 461.084C96.8738 461.084 96.1645 460.846 95.6325 460.37C95.1098 459.885 94.8485 459.124 94.8485 458.088ZM95.7725 458.088C95.7725 459.516 96.4352 460.23 97.7605 460.23C99.0858 460.23 99.7485 459.516 99.7485 458.088V453.748C99.7485 452.329 99.0858 451.62 97.7605 451.62C96.4352 451.62 95.7725 452.329 95.7725 453.748V458.088Z" fill="#F5F5F5"/>
<path d="M49.216 489.584V478.688C49.216 478.453 49.3653 478.325 49.664 478.304H52.608C53.6107 478.304 54.4107 478.576 55.008 479.12C55.6053 479.664 55.904 480.523 55.904 481.696V481.856C55.904 483.029 55.6 483.893 54.992 484.448C54.3947 484.992 53.5893 485.264 52.576 485.264H50.272V489.584C50.272 489.712 50.2187 489.813 50.112 489.888C50.0053 489.963 49.8827 490 49.744 490C49.5947 490 49.4667 489.963 49.36 489.888C49.264 489.813 49.216 489.712 49.216 489.584ZM50.272 484.352H52.576C53.3013 484.352 53.8613 484.149 54.256 483.744C54.6507 483.339 54.848 482.725 54.848 481.904V481.712C54.848 480.091 54.0907 479.28 52.576 479.28H50.272V484.352ZM56.7513 487.072V485.28C56.7513 484.48 57.0499 483.792 57.6473 483.216C58.2446 482.629 58.9646 482.336 59.8073 482.336C60.6179 482.336 61.3166 482.613 61.9033 483.168C62.5006 483.723 62.7993 484.416 62.7993 485.248C62.7993 485.547 62.7619 485.787 62.6873 485.968C62.6233 486.149 62.5113 486.277 62.3513 486.352C62.2019 486.427 62.0633 486.475 61.9353 486.496C61.8073 486.517 61.6313 486.528 61.4073 486.528H57.7913V487.12C57.7913 487.749 58.0153 488.256 58.4633 488.64C58.9219 489.013 59.5086 489.2 60.2233 489.2C60.5859 489.2 60.9006 489.147 61.1673 489.04C61.4446 488.933 61.6526 488.827 61.7913 488.72C61.9406 488.613 62.0579 488.56 62.1433 488.56C62.2606 488.56 62.3619 488.619 62.4473 488.736C62.5433 488.843 62.5913 488.949 62.5913 489.056C62.5913 489.28 62.3619 489.515 61.9033 489.76C61.4446 489.995 60.8739 490.112 60.1913 490.112C59.1779 490.112 58.3513 489.835 57.7113 489.28C57.0713 488.715 56.7513 487.979 56.7513 487.072ZM57.7913 485.76H60.9913C61.3113 485.76 61.5246 485.728 61.6313 485.664C61.7379 485.589 61.7913 485.44 61.7913 485.216C61.7913 484.683 61.5993 484.213 61.2153 483.808C60.8419 483.403 60.3673 483.2 59.7913 483.2C59.2366 483.2 58.7619 483.392 58.3673 483.776C57.9833 484.16 57.7913 484.619 57.7913 485.152V485.76ZM58.5753 480.096C58.5753 479.957 58.6339 479.861 58.7513 479.808L60.5433 478.832C60.5753 478.8 60.6179 478.784 60.6713 478.784C60.7886 478.784 60.8793 478.832 60.9433 478.928C61.0179 479.013 61.0553 479.115 61.0553 479.232C61.0553 479.403 60.9913 479.52 60.8633 479.584L59.1513 480.496C59.0979 480.528 59.0446 480.544 58.9913 480.544C58.8846 480.544 58.7886 480.501 58.7033 480.416C58.6179 480.32 58.5753 480.213 58.5753 480.096ZM64.3674 489.584V482.816C64.3674 482.709 64.4154 482.619 64.5114 482.544C64.6074 482.469 64.73 482.432 64.8794 482.432C65.018 482.432 65.1354 482.469 65.2314 482.544C65.3274 482.619 65.3754 482.709 65.3754 482.816V483.6C65.5674 483.248 65.85 482.949 66.2234 482.704C66.5967 482.459 67.0287 482.336 67.5194 482.336H68.0794C68.186 482.336 68.282 482.384 68.3674 482.48C68.4527 482.576 68.4954 482.688 68.4954 482.816C68.4954 482.944 68.4527 483.056 68.3674 483.152C68.282 483.248 68.186 483.296 68.0794 483.296H67.5194C66.9647 483.296 66.474 483.515 66.0474 483.952C65.6207 484.379 65.4074 484.939 65.4074 485.632V489.584C65.4074 489.691 65.354 489.787 65.2474 489.872C65.1514 489.957 65.0287 490 64.8794 490C64.7407 490 64.618 489.957 64.5114 489.872C64.4154 489.787 64.3674 489.691 64.3674 489.584ZM69.095 487.072V485.28C69.095 484.48 69.3937 483.792 69.991 483.216C70.5883 482.629 71.3083 482.336 72.151 482.336C72.9617 482.336 73.6603 482.613 74.247 483.168C74.8443 483.723 75.143 484.416 75.143 485.248C75.143 485.547 75.1057 485.787 75.031 485.968C74.967 486.149 74.855 486.277 74.695 486.352C74.5457 486.427 74.407 486.475 74.279 486.496C74.151 486.517 73.975 486.528 73.751 486.528H70.135V487.12C70.135 487.749 70.359 488.256 70.807 488.64C71.2657 489.013 71.8523 489.2 72.567 489.2C72.9297 489.2 73.2443 489.147 73.511 489.04C73.7883 488.933 73.9963 488.827 74.135 488.72C74.2843 488.613 74.4017 488.56 74.487 488.56C74.6043 488.56 74.7057 488.619 74.791 488.736C74.887 488.843 74.935 488.949 74.935 489.056C74.935 489.28 74.7057 489.515 74.247 489.76C73.7883 489.995 73.2177 490.112 72.535 490.112C71.5217 490.112 70.695 489.835 70.055 489.28C69.415 488.715 69.095 487.979 69.095 487.072ZM70.135 485.76H73.335C73.655 485.76 73.8683 485.728 73.975 485.664C74.0817 485.589 74.135 485.44 74.135 485.216C74.135 484.683 73.943 484.213 73.559 483.808C73.1857 483.403 72.711 483.2 72.135 483.2C71.5803 483.2 71.1057 483.392 70.711 483.776C70.327 484.16 70.135 484.619 70.135 485.152V485.76ZM76.0871 489.584C76.0871 489.467 76.1405 489.333 76.2471 489.184L80.1671 483.344H76.6311C76.5245 483.344 76.4338 483.301 76.3591 483.216C76.2845 483.12 76.2471 483.013 76.2471 482.896C76.2471 482.768 76.2845 482.661 76.3591 482.576C76.4338 482.48 76.5245 482.432 76.6311 482.432H81.1591C81.2658 482.432 81.3565 482.469 81.4311 482.544C81.5165 482.619 81.5591 482.72 81.5591 482.848C81.5591 482.987 81.5165 483.115 81.4311 483.232L77.4951 489.072H81.3671C81.4738 489.072 81.5645 489.12 81.6391 489.216C81.7138 489.301 81.7511 489.413 81.7511 489.552C81.7511 489.669 81.7138 489.776 81.6391 489.872C81.5645 489.957 81.4738 490 81.3671 490H76.5191C76.3911 490 76.2845 489.957 76.1991 489.872C76.1245 489.787 76.0871 489.691 76.0871 489.584Z" fill="white" fill-opacity="0.5"/>
<path d="M142 202.2V69.8C142 67.9333 142.667 66.3333 144 65C145.333 63.6667 147 63 149 63H187C217.667 63 233 76.6 233 103.8C233 115.133 230.467 124.067 225.4 130.6C220.333 137 213.467 141.267 204.8 143.4L232.8 196C233.333 196.933 233.6 197.933 233.6 199C233.6 201.667 232.2 204.133 229.4 206.4C226.733 208.667 223.867 209.8 220.8 209.8C217.333 209.8 214.533 207.733 212.4 203.6L183.2 146.4H163V202.2C163 204.333 161.933 206.067 159.8 207.4C157.8 208.6 155.333 209.2 152.4 209.2C149.6 209.2 147.133 208.6 145 207.4C143 206.067 142 204.333 142 202.2ZM163 129.4H187C203.533 129.4 211.8 121.467 211.8 105.6C211.8 89.7333 203.533 81.8 187 81.8H163V129.4Z" fill="white"/>
<line x1="330" y1="23" x2="358" y2="23" stroke="white" stroke-width="2" stroke-linecap="round" stroke-linejoin="round"/>
<line x1="330" y1="32" x2="358" y2="32" stroke="white" stroke-width="2" stroke-linecap="round"/>
</g>
<defs>
<filter id="filter0_d" x="8" y="262" width="367.043" height="541" filterUnits="userSpaceOnUse" color-interpolation-filters="sRGB">
<feFlood flood-opacity="0" result="BackgroundImageFix"/>
<feColorMatrix in="SourceAlpha" type="matrix" values="0 0 0 0 0 0 0 0 0 0 0 0 0 0 0 0 0 0 127 0"/>
<feOffset dx="4" dy="4"/>
<feGaussianBlur stdDeviation="10"/>
<feColorMatrix type="matrix" values="0 0 0 0 0 0 0 0 0 0 0 0 0 0 0 0 0 0 0.25 0"/>
<feBlend mode="normal" in2="BackgroundImageFix" result="effect1_dropShadow"/>
<feBlend mode="normal" in="SourceGraphic" in2="effect1_dropShadow" result="shape"/>
</filter>
<linearGradient id="paint0_linear" x1="54.4383" y1="750.492" x2="327" y2="750.492" gradientUnits="userSpaceOnUse">
<stop stop-color="#8DE7ED"/>
<stop offset="1" stop-color="#2FCEC5"/>
</linearGradient>
<clipPath id="clip0">
<rect width="375" height="812" fill="white"/>
</clipPath>
</defs>
</svg>