<?xml version="1.0" encoding="UTF-8"?>
<svg width="375" height="812" viewBox="0 0 375 812" fill="none" xmlns="http://www.w3.org/2000/svg">
<g clip-path="url(#clip0)">
<rect width="375" height="812" fill="white"/>
<rect width="375" height="812" fill="#393FD0"/>
<path opacity="0.5" d="M53.08 285.262V273.562C53.08 273.322 53.194 273.142 53.422 273.022C53.65 272.902 53.926 272.842 54.25 272.842C54.574 272.842 54.85 272.902 55.078 273.022C55.306 273.142 55.42 273.322 55.42 273.562V285.262C55.42 285.49 55.3 285.67 55.06 285.802C54.832 285.934 54.562 286 54.25 286C53.926 286 53.65 285.934 53.422 285.802C53.194 285.67 53.08 285.49 53.08 285.262ZM57.58 285.262V273.58C57.58 273.34 57.694 273.16 57.922 273.04C58.15 272.908 58.426 272.842 58.75 272.842C59.182 272.842 59.512 272.92 59.74 273.076C59.968 273.232 60.22 273.568 60.496 274.084L63.97 280.798V273.562C63.97 273.322 64.084 273.142 64.312 273.022C64.54 272.902 64.816 272.842 65.14 272.842C65.464 272.842 65.74 272.902 65.968 273.022C66.196 273.142 66.31 273.322 66.31 273.562V285.262C66.31 285.49 66.19 285.67 65.95 285.802C65.722 285.934 65.452 286 65.14 286C64.504 286 64.054 285.754 63.79 285.262L59.92 278.026V285.262C59.92 285.49 59.8 285.67 59.56 285.802C59.332 285.934 59.062 286 58.75 286C58.426 286 58.15 285.934 57.922 285.802C57.694 285.67 57.58 285.49 57.58 285.262ZM68.4784 285.262V273.562C68.4784 273.322 68.5924 273.142 68.8204 273.022C69.0484 272.902 69.3244 272.842 69.6484 272.842C69.9724 272.842 70.2484 272.902 70.4764 273.022C70.7044 273.142 70.8184 273.322 70.8184 273.562V285.262C70.8184 285.49 70.6984 285.67 70.4584 285.802C70.2304 285.934 69.9604 286 69.6484 286C69.3244 286 69.0484 285.934 68.8204 285.802C68.5924 285.67 68.4784 285.49 68.4784 285.262ZM72.8524 281.986V276.964C72.8524 275.548 73.2364 274.51 74.0044 273.85C74.7724 273.178 75.7744 272.842 77.0104 272.842C78.2704 272.842 79.2964 273.154 80.0884 273.778C80.8924 274.402 81.2944 275.23 81.2944 276.262C81.2944 276.706 81.2044 277.012 81.0244 277.18C80.8444 277.336 80.5444 277.414 80.1244 277.414C79.3564 277.414 78.9664 277.168 78.9544 276.676C78.9424 276.52 78.9244 276.388 78.9004 276.28C78.8884 276.16 78.8404 276.01 78.7564 275.83C78.6844 275.638 78.5884 275.482 78.4684 275.362C78.3484 275.23 78.1684 275.122 77.9284 275.038C77.6884 274.942 77.4064 274.894 77.0824 274.894C75.8224 274.894 75.1924 275.584 75.1924 276.964V281.986C75.1924 283.366 75.8344 284.056 77.1184 284.056C77.5024 284.056 77.8204 283.996 78.0724 283.876C78.3364 283.756 78.5224 283.588 78.6304 283.372C78.7504 283.144 78.8284 282.946 78.8644 282.778C78.9124 282.598 78.9424 282.382 78.9544 282.13C78.9904 281.638 79.3744 281.392 80.1064 281.392C80.5264 281.392 80.8264 281.476 81.0064 281.644C81.1984 281.8 81.2944 282.1 81.2944 282.544C81.2944 283.624 80.8924 284.488 80.0884 285.136C79.2964 285.784 78.2644 286.108 76.9924 286.108C75.7564 286.108 74.7544 285.778 73.9864 285.118C73.2304 284.446 72.8524 283.402 72.8524 281.986ZM82.8749 285.262V273.562C82.8749 273.322 82.9889 273.142 83.2169 273.022C83.4449 272.902 83.7209 272.842 84.0449 272.842C84.3689 272.842 84.6449 272.902 84.8729 273.022C85.1009 273.142 85.2149 273.322 85.2149 273.562V285.262C85.2149 285.49 85.0949 285.67 84.8549 285.802C84.6269 285.934 84.3569 286 84.0449 286C83.7209 286 83.4449 285.934 83.2169 285.802C82.9889 285.67 82.8749 285.49 82.8749 285.262ZM87.2309 281.986V276.964C87.2309 275.536 87.6089 274.492 88.3649 273.832C89.1329 273.172 90.1589 272.842 91.4429 272.842C92.7269 272.842 93.7529 273.172 94.5209 273.832C95.2889 274.492 95.6729 275.536 95.6729 276.964V281.986C95.6729 283.414 95.2889 284.458 94.5209 285.118C93.7529 285.778 92.7269 286.108 91.4429 286.108C90.1589 286.108 89.1329 285.778 88.3649 285.118C87.6089 284.458 87.2309 283.414 87.2309 281.986ZM89.5709 281.986C89.5709 283.366 90.1949 284.056 91.4429 284.056C92.7029 284.056 93.3329 283.366 93.3329 281.986V276.964C93.3329 275.584 92.7029 274.894 91.4429 274.894C90.1949 274.894 89.5709 275.584 89.5709 276.964V281.986Z" fill="white"/>
<path d="M52.432 345.93C52.432 345.654 52.534 345.378 52.738 345.102C52.954 344.814 53.194 344.67 53.458 344.67C53.614 344.67 53.788 344.742 53.98 344.886C54.184 345.03 54.376 345.192 54.556 345.372C54.748 345.54 55.018 345.696 55.366 345.84C55.714 345.984 56.098 346.056 56.518 346.056C57.094 346.056 57.574 345.924 57.958 345.66C58.342 345.396 58.534 345.006 58.534 344.49C58.534 344.13 58.426 343.812 58.21 343.536C58.006 343.248 57.73 343.014 57.382 342.834C57.046 342.642 56.674 342.462 56.266 342.294C55.858 342.114 55.444 341.916 55.024 341.7C54.616 341.484 54.238 341.244 53.89 340.98C53.554 340.704 53.278 340.344 53.062 339.9C52.858 339.444 52.756 338.928 52.756 338.352C52.756 337.716 52.882 337.158 53.134 336.678C53.398 336.186 53.746 335.808 54.178 335.544C54.61 335.268 55.072 335.07 55.564 334.95C56.056 334.818 56.578 334.752 57.13 334.752C57.442 334.752 57.772 334.776 58.12 334.824C58.468 334.86 58.834 334.926 59.218 335.022C59.614 335.118 59.932 335.268 60.172 335.472C60.424 335.676 60.55 335.916 60.55 336.192C60.55 336.456 60.466 336.732 60.298 337.02C60.13 337.296 59.902 337.434 59.614 337.434C59.506 337.434 59.212 337.32 58.732 337.092C58.252 336.864 57.718 336.75 57.13 336.75C56.482 336.75 55.978 336.876 55.618 337.128C55.27 337.368 55.096 337.704 55.096 338.136C55.096 338.484 55.24 338.79 55.528 339.054C55.816 339.306 56.17 339.516 56.59 339.684C57.022 339.84 57.484 340.044 57.976 340.296C58.48 340.536 58.942 340.8 59.362 341.088C59.794 341.376 60.154 341.796 60.442 342.348C60.73 342.888 60.874 343.524 60.874 344.256C60.874 345.504 60.478 346.47 59.686 347.154C58.906 347.826 57.874 348.162 56.59 348.162C55.45 348.162 54.472 347.928 53.656 347.46C52.84 346.992 52.432 346.482 52.432 345.93ZM62.4843 347.262V335.58C62.4843 335.352 62.5863 335.172 62.7903 335.04C62.9943 334.908 63.2343 334.842 63.5103 334.842H69.9183C70.1583 334.842 70.3383 334.944 70.4583 335.148C70.5903 335.352 70.6563 335.586 70.6563 335.85C70.6563 336.138 70.5903 336.384 70.4583 336.588C70.3263 336.792 70.1463 336.894 69.9183 336.894H64.8243V340.494H67.5603C67.7883 340.494 67.9683 340.59 68.1003 340.782C68.2323 340.962 68.2983 341.178 68.2983 341.43C68.2983 341.658 68.2323 341.868 68.1003 342.06C67.9803 342.24 67.8003 342.33 67.5603 342.33H64.8243V345.948H69.9183C70.1463 345.948 70.3263 346.05 70.4583 346.254C70.5903 346.458 70.6563 346.704 70.6563 346.992C70.6563 347.256 70.5903 347.49 70.4583 347.694C70.3383 347.898 70.1583 348 69.9183 348H63.5103C63.2343 348 62.9943 347.934 62.7903 347.802C62.5863 347.67 62.4843 347.49 62.4843 347.262ZM72.0292 347.262V335.562C72.0292 335.37 72.1012 335.202 72.2452 335.058C72.3892 334.914 72.5692 334.842 72.7852 334.842H76.3492C79.1932 334.842 80.6152 336.096 80.6152 338.604C80.6152 339.588 80.3992 340.38 79.9672 340.98C79.5472 341.58 78.9772 341.988 78.2572 342.204L80.6152 346.578C80.6752 346.65 80.7052 346.746 80.7052 346.866C80.7052 347.166 80.5492 347.448 80.2372 347.712C79.9252 347.964 79.5952 348.09 79.2472 348.09C78.8992 348.09 78.6292 347.904 78.4372 347.532L75.8812 342.564H74.3692V347.262C74.3692 347.49 74.2552 347.67 74.0272 347.802C73.7992 347.934 73.5232 348 73.1992 348C72.8872 348 72.6112 347.934 72.3712 347.802C72.1432 347.67 72.0292 347.49 72.0292 347.262ZM74.3692 340.728H76.3492C77.6332 340.728 78.2752 340.092 78.2752 338.82C78.2752 337.536 77.6332 336.894 76.3492 336.894H74.3692V340.728ZM81.3768 335.814C81.3768 335.538 81.5328 335.31 81.8448 335.13C82.1688 334.938 82.5048 334.842 82.8528 334.842C83.2968 334.842 83.5608 334.998 83.6448 335.31L86.3988 345.066L89.1348 335.31C89.2188 334.998 89.4828 334.842 89.9268 334.842C90.2628 334.842 90.5928 334.938 90.9168 335.13C91.2408 335.322 91.4028 335.55 91.4028 335.814C91.4028 335.838 91.3908 335.898 91.3668 335.994L87.9108 347.316C87.8388 347.568 87.6588 347.766 87.3708 347.91C87.0828 348.042 86.7588 348.108 86.3988 348.108C85.5708 348.108 85.0668 347.844 84.8868 347.316L81.4128 335.994C81.3888 335.898 81.3768 335.838 81.3768 335.814ZM92.6484 347.262V335.562C92.6484 335.322 92.7624 335.142 92.9904 335.022C93.2184 334.902 93.4944 334.842 93.8184 334.842C94.1424 334.842 94.4184 334.902 94.6464 335.022C94.8744 335.142 94.9884 335.322 94.9884 335.562V347.262C94.9884 347.49 94.8684 347.67 94.6284 347.802C94.4004 347.934 94.1304 348 93.8184 348C93.4944 348 93.2184 347.934 92.9904 347.802C92.7624 347.67 92.6484 347.49 92.6484 347.262ZM97.0224 343.986V338.964C97.0224 337.548 97.4064 336.51 98.1744 335.85C98.9424 335.178 99.9444 334.842 101.18 334.842C102.44 334.842 103.466 335.154 104.258 335.778C105.062 336.402 105.464 337.23 105.464 338.262C105.464 338.706 105.374 339.012 105.194 339.18C105.014 339.336 104.714 339.414 104.294 339.414C103.526 339.414 103.136 339.168 103.124 338.676C103.112 338.52 103.094 338.388 103.07 338.28C103.058 338.16 103.01 338.01 102.926 337.83C102.854 337.638 102.758 337.482 102.638 337.362C102.518 337.23 102.338 337.122 102.098 337.038C101.858 336.942 101.576 336.894 101.252 336.894C99.9924 336.894 99.3624 337.584 99.3624 338.964V343.986C99.3624 345.366 100.004 346.056 101.288 346.056C101.672 346.056 101.99 345.996 102.242 345.876C102.506 345.756 102.692 345.588 102.8 345.372C102.92 345.144 102.998 344.946 103.034 344.778C103.082 344.598 103.112 344.382 103.124 344.13C103.16 343.638 103.544 343.392 104.276 343.392C104.696 343.392 104.996 343.476 105.176 343.644C105.368 343.8 105.464 344.1 105.464 344.544C105.464 345.624 105.062 346.488 104.258 347.136C103.466 347.784 102.434 348.108 101.162 348.108C99.9264 348.108 98.9244 347.778 98.1564 347.118C97.4004 346.446 97.0224 345.402 97.0224 343.986ZM107.045 347.262V335.562C107.045 335.322 107.159 335.142 107.387 335.022C107.615 334.902 107.891 334.842 108.215 334.842C108.539 334.842 108.815 334.902 109.043 335.022C109.271 335.142 109.385 335.322 109.385 335.562V347.262C109.385 347.49 109.265 347.67 109.025 347.802C108.797 347.934 108.527 348 108.215 348C107.891 348 107.615 347.934 107.387 347.802C107.159 347.67 107.045 347.49 107.045 347.262ZM111.401 343.986V338.964C111.401 337.536 111.779 336.492 112.535 335.832C113.303 335.172 114.329 334.842 115.613 334.842C116.897 334.842 117.923 335.172 118.691 335.832C119.459 336.492 119.843 337.536 119.843 338.964V343.986C119.843 345.414 119.459 346.458 118.691 347.118C117.923 347.778 116.897 348.108 115.613 348.108C114.329 348.108 113.303 347.778 112.535 347.118C111.779 346.458 111.401 345.414 111.401 343.986ZM113.741 343.986C113.741 345.366 114.365 346.056 115.613 346.056C116.873 346.056 117.503 345.366 117.503 343.986V338.964C117.503 337.584 116.873 336.894 115.613 336.894C114.365 336.894 113.741 337.584 113.741 338.964V343.986ZM121.198 345.93C121.198 345.654 121.3 345.378 121.504 345.102C121.72 344.814 121.96 344.67 122.224 344.67C122.38 344.67 122.554 344.742 122.746 344.886C122.95 345.03 123.142 345.192 123.322 345.372C123.514 345.54 123.784 345.696 124.132 345.84C124.48 345.984 124.864 346.056 125.284 346.056C125.86 346.056 126.34 345.924 126.724 345.66C127.108 345.396 127.3 345.006 127.3 344.49C127.3 344.13 127.192 343.812 126.976 343.536C126.772 343.248 126.496 343.014 126.148 342.834C125.812 342.642 125.44 342.462 125.032 342.294C124.624 342.114 124.21 341.916 123.79 341.7C123.382 341.484 123.004 341.244 122.656 340.98C122.32 340.704 122.044 340.344 121.828 339.9C121.624 339.444 121.522 338.928 121.522 338.352C121.522 337.716 121.648 337.158 121.9 336.678C122.164 336.186 122.512 335.808 122.944 335.544C123.376 335.268 123.838 335.07 124.33 334.95C124.822 334.818 125.344 334.752 125.896 334.752C126.208 334.752 126.538 334.776 126.886 334.824C127.234 334.86 127.6 334.926 127.984 335.022C128.38 335.118 128.698 335.268 128.938 335.472C129.19 335.676 129.316 335.916 129.316 336.192C129.316 336.456 129.232 336.732 129.064 337.02C128.896 337.296 128.668 337.434 128.38 337.434C128.272 337.434 127.978 337.32 127.498 337.092C127.018 336.864 126.484 336.75 125.896 336.75C125.248 336.75 124.744 336.876 124.384 337.128C124.036 337.368 123.862 337.704 123.862 338.136C123.862 338.484 124.006 338.79 124.294 339.054C124.582 339.306 124.936 339.516 125.356 339.684C125.788 339.84 126.25 340.044 126.742 340.296C127.246 340.536 127.708 340.8 128.128 341.088C128.56 341.376 128.92 341.796 129.208 342.348C129.496 342.888 129.64 343.524 129.64 344.256C129.64 345.504 129.244 346.47 128.452 347.154C127.672 347.826 126.64 348.162 125.356 348.162C124.216 348.162 123.238 347.928 122.422 347.46C121.606 346.992 121.198 346.482 121.198 345.93Z" fill="white"/>
<rect y="340" width="28" height="2" fill="#2FCDC4"/>
<path opacity="0.5" d="M53.08 409.262V397.58C53.08 397.34 53.194 397.16 53.422 397.04C53.65 396.908 53.926 396.842 54.25 396.842C54.682 396.842 55.012 396.92 55.24 397.076C55.468 397.232 55.72 397.568 55.996 398.084L59.47 404.798V397.562C59.47 397.322 59.584 397.142 59.812 397.022C60.04 396.902 60.316 396.842 60.64 396.842C60.964 396.842 61.24 396.902 61.468 397.022C61.696 397.142 61.81 397.322 61.81 397.562V409.262C61.81 409.49 61.69 409.67 61.45 409.802C61.222 409.934 60.952 410 60.64 410C60.004 410 59.554 409.754 59.29 409.262L55.42 402.026V409.262C55.42 409.49 55.3 409.67 55.06 409.802C54.832 409.934 54.562 410 54.25 410C53.926 410 53.65 409.934 53.422 409.802C53.194 409.67 53.08 409.49 53.08 409.262ZM63.9244 405.986V397.562C63.9244 397.322 64.0384 397.142 64.2664 397.022C64.4944 396.902 64.7704 396.842 65.0944 396.842C65.4184 396.842 65.6944 396.902 65.9224 397.022C66.1504 397.142 66.2644 397.322 66.2644 397.562V405.986C66.2644 407.366 66.9244 408.056 68.2444 408.056C69.5644 408.056 70.2244 407.366 70.2244 405.986V397.562C70.2244 397.322 70.3384 397.142 70.5664 397.022C70.7944 396.902 71.0704 396.842 71.3944 396.842C71.7184 396.842 71.9944 396.902 72.2224 397.022C72.4504 397.142 72.5644 397.322 72.5644 397.562V405.986C72.5644 407.402 72.1684 408.446 71.3764 409.118C70.5964 409.778 69.5524 410.108 68.2444 410.108C66.9364 410.108 65.8864 409.778 65.0944 409.118C64.3144 408.458 63.9244 407.414 63.9244 405.986ZM74.6659 409.262V397.58C74.6659 397.352 74.7679 397.172 74.9719 397.04C75.1759 396.908 75.4159 396.842 75.6919 396.842H82.0999C82.3399 396.842 82.5199 396.944 82.6399 397.148C82.7719 397.352 82.8379 397.586 82.8379 397.85C82.8379 398.138 82.7719 398.384 82.6399 398.588C82.5079 398.792 82.3279 398.894 82.0999 398.894H77.0059V402.494H79.7419C79.9699 402.494 80.1499 402.59 80.2819 402.782C80.4139 402.962 80.4799 403.178 80.4799 403.43C80.4799 403.658 80.4139 403.868 80.2819 404.06C80.1619 404.24 79.9819 404.33 79.7419 404.33H77.0059V407.948H82.0999C82.3279 407.948 82.5079 408.05 82.6399 408.254C82.7719 408.458 82.8379 408.704 82.8379 408.992C82.8379 409.256 82.7719 409.49 82.6399 409.694C82.5199 409.898 82.3399 410 82.0999 410H75.6919C75.4159 410 75.1759 409.934 74.9719 409.802C74.7679 409.67 74.6659 409.49 74.6659 409.262ZM83.5629 407.93C83.5629 407.654 83.6649 407.378 83.8689 407.102C84.0849 406.814 84.3249 406.67 84.5889 406.67C84.7449 406.67 84.9189 406.742 85.1109 406.886C85.3149 407.03 85.5069 407.192 85.6869 407.372C85.8789 407.54 86.1489 407.696 86.4969 407.84C86.8449 407.984 87.2289 408.056 87.6489 408.056C88.2249 408.056 88.7049 407.924 89.0889 407.66C89.4729 407.396 89.6649 407.006 89.6649 406.49C89.6649 406.13 89.5569 405.812 89.3409 405.536C89.1369 405.248 88.8609 405.014 88.5129 404.834C88.1769 404.642 87.8049 404.462 87.3969 404.294C86.9889 404.114 86.5749 403.916 86.1549 403.7C85.7469 403.484 85.3689 403.244 85.0209 402.98C84.6849 402.704 84.4089 402.344 84.1929 401.9C83.9889 401.444 83.8869 400.928 83.8869 400.352C83.8869 399.716 84.0129 399.158 84.2649 398.678C84.5289 398.186 84.8769 397.808 85.3089 397.544C85.7409 397.268 86.2029 397.07 86.6949 396.95C87.1869 396.818 87.7089 396.752 88.2609 396.752C88.5729 396.752 88.9029 396.776 89.2509 396.824C89.5989 396.86 89.9649 396.926 90.3489 397.022C90.7449 397.118 91.0629 397.268 91.3029 397.472C91.5549 397.676 91.6809 397.916 91.6809 398.192C91.6809 398.456 91.5969 398.732 91.4289 399.02C91.2609 399.296 91.0329 399.434 90.7449 399.434C90.6369 399.434 90.3429 399.32 89.8629 399.092C89.3829 398.864 88.8489 398.75 88.2609 398.75C87.6129 398.75 87.1089 398.876 86.7489 399.128C86.4009 399.368 86.2269 399.704 86.2269 400.136C86.2269 400.484 86.3709 400.79 86.6589 401.054C86.9469 401.306 87.3009 401.516 87.7209 401.684C88.1529 401.84 88.6149 402.044 89.1069 402.296C89.6109 402.536 90.0729 402.8 90.4929 403.088C90.9249 403.376 91.2849 403.796 91.5729 404.348C91.8609 404.888 92.0049 405.524 92.0049 406.256C92.0049 407.504 91.6089 408.47 90.8169 409.154C90.0369 409.826 89.0049 410.162 87.7209 410.162C86.5809 410.162 85.6029 409.928 84.7869 409.46C83.9709 408.992 83.5629 408.482 83.5629 407.93ZM92.7512 397.886C92.7512 397.61 92.8112 397.37 92.9312 397.166C93.0632 396.95 93.2492 396.842 93.4892 396.842H101.103C101.343 396.842 101.523 396.95 101.643 397.166C101.775 397.37 101.841 397.61 101.841 397.886C101.841 398.174 101.775 398.426 101.643 398.642C101.511 398.846 101.331 398.948 101.103 398.948H98.4752V409.262C98.4752 409.49 98.3552 409.67 98.1152 409.802C97.8872 409.934 97.6172 410 97.3052 410C96.9812 410 96.7052 409.934 96.4772 409.802C96.2492 409.67 96.1352 409.49 96.1352 409.262V398.948H93.4892C93.2612 398.948 93.0812 398.846 92.9492 398.642C92.8172 398.438 92.7512 398.186 92.7512 397.886ZM103.125 409.262V397.562C103.125 397.37 103.197 397.202 103.341 397.058C103.485 396.914 103.665 396.842 103.881 396.842H107.445C110.289 396.842 111.711 398.096 111.711 400.604C111.711 401.588 111.495 402.38 111.063 402.98C110.643 403.58 110.073 403.988 109.353 404.204L111.711 408.578C111.771 408.65 111.801 408.746 111.801 408.866C111.801 409.166 111.645 409.448 111.333 409.712C111.021 409.964 110.691 410.09 110.343 410.09C109.995 410.09 109.725 409.904 109.533 409.532L106.977 404.564H105.465V409.262C105.465 409.49 105.351 409.67 105.123 409.802C104.895 409.934 104.619 410 104.295 410C103.983 410 103.707 409.934 103.467 409.802C103.239 409.67 103.125 409.49 103.125 409.262ZM105.465 402.728H107.445C108.729 402.728 109.371 402.092 109.371 400.82C109.371 399.536 108.729 398.894 107.445 398.894H105.465V402.728ZM113.247 405.986V400.964C113.247 399.536 113.625 398.492 114.381 397.832C115.149 397.172 116.175 396.842 117.459 396.842C118.743 396.842 119.769 397.172 120.537 397.832C121.305 398.492 121.689 399.536 121.689 400.964V405.986C121.689 407.414 121.305 408.458 120.537 409.118C119.769 409.778 118.743 410.108 117.459 410.108C116.175 410.108 115.149 409.778 114.381 409.118C113.625 408.458 113.247 407.414 113.247 405.986ZM115.587 405.986C115.587 407.366 116.211 408.056 117.459 408.056C118.719 408.056 119.349 407.366 119.349 405.986V400.964C119.349 399.584 118.719 398.894 117.459 398.894C116.211 398.894 115.587 399.584 115.587 400.964V405.986ZM127.295 409.262V397.58C127.295 397.352 127.397 397.172 127.601 397.04C127.805 396.908 128.045 396.842 128.321 396.842H134.729C134.969 396.842 135.149 396.944 135.269 397.148C135.401 397.352 135.467 397.586 135.467 397.85C135.467 398.138 135.401 398.384 135.269 398.588C135.137 398.792 134.957 398.894 134.729 398.894H129.635V402.494H132.371C132.599 402.494 132.779 402.59 132.911 402.782C133.043 402.962 133.109 403.178 133.109 403.43C133.109 403.658 133.043 403.868 132.911 404.06C132.791 404.24 132.611 404.33 132.371 404.33H129.635V407.948H134.729C134.957 407.948 135.137 408.05 135.269 408.254C135.401 408.458 135.467 408.704 135.467 408.992C135.467 409.256 135.401 409.49 135.269 409.694C135.149 409.898 134.969 410 134.729 410H128.321C128.045 410 127.805 409.934 127.601 409.802C127.397 409.67 127.295 409.49 127.295 409.262ZM136.555 405.986V400.964C136.555 399.536 136.933 398.492 137.689 397.832C138.457 397.172 139.483 396.842 140.767 396.842C142.051 396.842 143.077 397.172 143.845 397.832C144.613 398.492 144.997 399.536 144.997 400.964V405.986C144.997 407.258 144.685 408.224 144.061 408.884C143.437 409.544 142.585 409.934 141.505 410.054V411.224C141.505 411.452 141.433 411.632 141.289 411.764C141.145 411.896 140.971 411.962 140.767 411.962C140.563 411.962 140.383 411.896 140.227 411.764C140.083 411.632 140.011 411.452 140.011 411.224V410.054C137.707 409.802 136.555 408.446 136.555 405.986ZM138.895 405.986C138.895 407.03 139.267 407.672 140.011 407.912V406.958C140.011 406.718 140.083 406.538 140.227 406.418C140.383 406.298 140.563 406.238 140.767 406.238C140.971 406.238 141.145 406.298 141.289 406.418C141.433 406.538 141.505 406.718 141.505 406.958V407.912C142.273 407.66 142.657 407.018 142.657 405.986V400.964C142.657 400.28 142.489 399.764 142.153 399.416C141.829 399.068 141.367 398.894 140.767 398.894C139.519 398.894 138.895 399.584 138.895 400.964V405.986ZM146.946 405.986V397.562C146.946 397.322 147.06 397.142 147.288 397.022C147.516 396.902 147.792 396.842 148.116 396.842C148.44 396.842 148.716 396.902 148.944 397.022C149.172 397.142 149.286 397.322 149.286 397.562V405.986C149.286 407.366 149.946 408.056 151.266 408.056C152.586 408.056 153.246 407.366 153.246 405.986V397.562C153.246 397.322 153.36 397.142 153.588 397.022C153.816 396.902 154.092 396.842 154.416 396.842C154.74 396.842 155.016 396.902 155.244 397.022C155.472 397.142 155.586 397.322 155.586 397.562V405.986C155.586 407.402 155.19 408.446 154.398 409.118C153.618 409.778 152.574 410.108 151.266 410.108C149.958 410.108 148.908 409.778 148.116 409.118C147.336 408.458 146.946 407.414 146.946 405.986ZM157.687 409.262V397.562C157.687 397.322 157.801 397.142 158.029 397.022C158.257 396.902 158.533 396.842 158.857 396.842C159.181 396.842 159.457 396.902 159.685 397.022C159.913 397.142 160.027 397.322 160.027 397.562V409.262C160.027 409.49 159.907 409.67 159.667 409.802C159.439 409.934 159.169 410 158.857 410C158.533 410 158.257 409.934 158.029 409.802C157.801 409.67 157.687 409.49 157.687 409.262ZM162.187 409.262V397.562C162.187 397.37 162.265 397.202 162.421 397.058C162.589 396.914 162.805 396.842 163.069 396.842H166.687C167.923 396.842 168.913 397.172 169.657 397.832C170.401 398.48 170.773 399.5 170.773 400.892V401C170.773 402.404 170.383 403.436 169.603 404.096C168.835 404.756 167.815 405.086 166.543 405.086H164.527V409.262C164.527 409.49 164.407 409.67 164.167 409.802C163.939 409.934 163.669 410 163.357 410C163.033 410 162.757 409.934 162.529 409.802C162.301 409.67 162.187 409.49 162.187 409.262ZM164.527 403.25H166.543C167.143 403.25 167.605 403.076 167.929 402.728C168.265 402.38 168.433 401.864 168.433 401.18V400.964C168.433 400.28 168.265 399.764 167.929 399.416C167.605 399.068 167.143 398.894 166.543 398.894H164.527V403.25ZM172.063 405.986V400.964C172.063 399.536 172.441 398.492 173.197 397.832C173.965 397.172 174.991 396.842 176.275 396.842C177.559 396.842 178.585 397.172 179.353 397.832C180.121 398.492 180.505 399.536 180.505 400.964V405.986C180.505 407.414 180.121 408.458 179.353 409.118C178.585 409.778 177.559 410.108 176.275 410.108C174.991 410.108 173.965 409.778 173.197 409.118C172.441 408.458 172.063 407.414 172.063 405.986ZM174.403 405.986C174.403 407.366 175.027 408.056 176.275 408.056C177.535 408.056 178.165 407.366 178.165 405.986V400.964C178.165 399.584 177.535 398.894 176.275 398.894C175.027 398.894 174.403 399.584 174.403 400.964V405.986Z" fill="white"/>
<path opacity="0.5" d="M53.08 471.262V459.562C53.08 459.37 53.158 459.202 53.314 459.058C53.482 458.914 53.698 458.842 53.962 458.842H57.58C58.816 458.842 59.806 459.172 60.55 459.832C61.294 460.48 61.666 461.5 61.666 462.892V463C61.666 464.404 61.276 465.436 60.496 466.096C59.728 466.756 58.708 467.086 57.436 467.086H55.42V471.262C55.42 471.49 55.3 471.67 55.06 471.802C54.832 471.934 54.562 472 54.25 472C53.926 472 53.65 471.934 53.422 471.802C53.194 471.67 53.08 471.49 53.08 471.262ZM55.42 465.25H57.436C58.036 465.25 58.498 465.076 58.822 464.728C59.158 464.38 59.326 463.864 59.326 463.18V462.964C59.326 462.28 59.158 461.764 58.822 461.416C58.498 461.068 58.036 460.894 57.436 460.894H55.42V465.25ZM62.9555 467.986V462.964C62.9555 461.536 63.3335 460.492 64.0895 459.832C64.8575 459.172 65.8835 458.842 67.1675 458.842C68.4515 458.842 69.4775 459.172 70.2455 459.832C71.0135 460.492 71.3975 461.536 71.3975 462.964V467.986C71.3975 469.414 71.0135 470.458 70.2455 471.118C69.4775 471.778 68.4515 472.108 67.1675 472.108C65.8835 472.108 64.8575 471.778 64.0895 471.118C63.3335 470.458 62.9555 469.414 62.9555 467.986ZM65.2955 467.986C65.2955 469.366 65.9195 470.056 67.1675 470.056C68.4275 470.056 69.0575 469.366 69.0575 467.986V462.964C69.0575 461.584 68.4275 460.894 67.1675 460.894C65.9195 460.894 65.2955 461.584 65.2955 462.964V467.986ZM73.4003 471.262V459.562C73.4003 459.37 73.4723 459.202 73.6163 459.058C73.7603 458.914 73.9403 458.842 74.1563 458.842H77.7203C80.5643 458.842 81.9863 460.096 81.9863 462.604C81.9863 463.588 81.7703 464.38 81.3383 464.98C80.9183 465.58 80.3483 465.988 79.6283 466.204L81.9863 470.578C82.0463 470.65 82.0763 470.746 82.0763 470.866C82.0763 471.166 81.9203 471.448 81.6083 471.712C81.2963 471.964 80.9663 472.09 80.6183 472.09C80.2703 472.09 80.0003 471.904 79.8083 471.532L77.2523 466.564H75.7403V471.262C75.7403 471.49 75.6263 471.67 75.3983 471.802C75.1703 471.934 74.8943 472 74.5703 472C74.2583 472 73.9823 471.934 73.7423 471.802C73.5143 471.67 73.4003 471.49 73.4003 471.262ZM75.7403 464.728H77.7203C79.0043 464.728 79.6463 464.092 79.6463 462.82C79.6463 461.536 79.0043 460.894 77.7203 460.894H75.7403V464.728ZM82.6613 459.886C82.6613 459.61 82.7213 459.37 82.8413 459.166C82.9733 458.95 83.1593 458.842 83.3993 458.842H91.0133C91.2533 458.842 91.4333 458.95 91.5533 459.166C91.6853 459.37 91.7513 459.61 91.7513 459.886C91.7513 460.174 91.6853 460.426 91.5533 460.642C91.4213 460.846 91.2413 460.948 91.0133 460.948H88.3853V471.262C88.3853 471.49 88.2653 471.67 88.0253 471.802C87.7973 471.934 87.5273 472 87.2153 472C86.8913 472 86.6153 471.934 86.3873 471.802C86.1593 471.67 86.0453 471.49 86.0453 471.262V460.948H83.3993C83.1713 460.948 82.9913 460.846 82.8593 460.642C82.7273 460.438 82.6613 460.186 82.6613 459.886ZM91.08 471.028C91.08 471.004 91.092 470.944 91.116 470.848L94.59 459.526C94.662 459.274 94.836 459.082 95.112 458.95C95.4 458.806 95.724 458.734 96.084 458.734C96.444 458.734 96.768 458.806 97.056 458.95C97.344 459.082 97.524 459.274 97.596 459.526L101.07 470.848C101.094 470.944 101.106 471.004 101.106 471.028C101.106 471.292 100.944 471.52 100.62 471.712C100.296 471.904 99.966 472 99.63 472C99.186 472 98.922 471.844 98.838 471.532L98.154 469.138H94.032L93.348 471.532C93.264 471.844 93 472 92.556 472C92.208 472 91.872 471.91 91.548 471.73C91.236 471.538 91.08 471.304 91.08 471.028ZM94.518 467.302H97.65L96.084 461.776L94.518 467.302ZM102.351 471.262V459.58C102.351 459.352 102.453 459.172 102.657 459.04C102.861 458.908 103.101 458.842 103.377 458.842H109.659C109.899 458.842 110.079 458.944 110.199 459.148C110.319 459.34 110.379 459.574 110.379 459.85C110.379 460.138 110.313 460.384 110.181 460.588C110.061 460.792 109.887 460.894 109.659 460.894H104.691V464.494H107.445C107.673 464.494 107.847 464.584 107.967 464.764C108.099 464.944 108.165 465.166 108.165 465.43C108.165 465.67 108.099 465.88 107.967 466.06C107.847 466.24 107.673 466.33 107.445 466.33H104.691V471.262C104.691 471.49 104.571 471.67 104.331 471.802C104.103 471.934 103.833 472 103.521 472C103.197 472 102.921 471.934 102.693 471.802C102.465 471.67 102.351 471.49 102.351 471.262ZM111.207 467.986V462.964C111.207 461.536 111.585 460.492 112.341 459.832C113.109 459.172 114.135 458.842 115.419 458.842C116.703 458.842 117.729 459.172 118.497 459.832C119.265 460.492 119.649 461.536 119.649 462.964V467.986C119.649 469.414 119.265 470.458 118.497 471.118C117.729 471.778 116.703 472.108 115.419 472.108C114.135 472.108 113.109 471.778 112.341 471.118C111.585 470.458 111.207 469.414 111.207 467.986ZM113.547 467.986C113.547 469.366 114.171 470.056 115.419 470.056C116.679 470.056 117.309 469.366 117.309 467.986V462.964C117.309 461.584 116.679 460.894 115.419 460.894C114.171 460.894 113.547 461.584 113.547 462.964V467.986ZM121.652 471.262V459.562C121.652 459.322 121.766 459.142 121.994 459.022C122.222 458.902 122.498 458.842 122.822 458.842C123.146 458.842 123.422 458.902 123.65 459.022C123.878 459.142 123.992 459.322 123.992 459.562V469.948H128.384C128.6 469.948 128.768 470.05 128.888 470.254C129.02 470.458 129.086 470.698 129.086 470.974C129.086 471.25 129.02 471.49 128.888 471.694C128.768 471.898 128.6 472 128.384 472H122.678C122.402 472 122.162 471.934 121.958 471.802C121.754 471.67 121.652 471.49 121.652 471.262ZM130.371 471.262V459.562C130.371 459.322 130.485 459.142 130.713 459.022C130.941 458.902 131.217 458.842 131.541 458.842C131.865 458.842 132.141 458.902 132.369 459.022C132.597 459.142 132.711 459.322 132.711 459.562V471.262C132.711 471.49 132.591 471.67 132.351 471.802C132.123 471.934 131.853 472 131.541 472C131.217 472 130.941 471.934 130.713 471.802C130.485 471.67 130.371 471.49 130.371 471.262ZM134.727 467.986V462.964C134.727 461.536 135.105 460.492 135.861 459.832C136.629 459.172 137.655 458.842 138.939 458.842C140.223 458.842 141.249 459.172 142.017 459.832C142.785 460.492 143.169 461.536 143.169 462.964V467.986C143.169 469.414 142.785 470.458 142.017 471.118C141.249 471.778 140.223 472.108 138.939 472.108C137.655 472.108 136.629 471.778 135.861 471.118C135.105 470.458 134.727 469.414 134.727 467.986ZM137.067 467.986C137.067 469.366 137.691 470.056 138.939 470.056C140.199 470.056 140.829 469.366 140.829 467.986V462.964C140.829 461.584 140.199 460.894 138.939 460.894C137.691 460.894 137.067 461.584 137.067 462.964V467.986Z" fill="white"/>
<path opacity="0.5" d="M52.954 529.986V524.964C52.954 523.548 53.338 522.51 54.106 521.85C54.874 521.178 55.876 520.842 57.112 520.842C58.372 520.842 59.398 521.154 60.19 521.778C60.994 522.402 61.396 523.23 61.396 524.262C61.396 524.706 61.306 525.012 61.126 525.18C60.946 525.336 60.646 525.414 60.226 525.414C59.458 525.414 59.068 525.168 59.056 524.676C59.044 524.52 59.026 524.388 59.002 524.28C58.99 524.16 58.942 524.01 58.858 523.83C58.786 523.638 58.69 523.482 58.57 523.362C58.45 523.23 58.27 523.122 58.03 523.038C57.79 522.942 57.508 522.894 57.184 522.894C55.924 522.894 55.294 523.584 55.294 524.964V529.986C55.294 531.366 55.936 532.056 57.22 532.056C57.604 532.056 57.922 531.996 58.174 531.876C58.438 531.756 58.624 531.588 58.732 531.372C58.852 531.144 58.93 530.946 58.966 530.778C59.014 530.598 59.044 530.382 59.056 530.13C59.092 529.638 59.476 529.392 60.208 529.392C60.628 529.392 60.928 529.476 61.108 529.644C61.3 529.8 61.396 530.1 61.396 530.544C61.396 531.624 60.994 532.488 60.19 533.136C59.398 533.784 58.366 534.108 57.094 534.108C55.858 534.108 54.856 533.778 54.088 533.118C53.332 532.446 52.954 531.402 52.954 529.986ZM62.8325 529.986V524.964C62.8325 523.536 63.2105 522.492 63.9665 521.832C64.7345 521.172 65.7605 520.842 67.0445 520.842C68.3285 520.842 69.3545 521.172 70.1225 521.832C70.8905 522.492 71.2745 523.536 71.2745 524.964V529.986C71.2745 531.414 70.8905 532.458 70.1225 533.118C69.3545 533.778 68.3285 534.108 67.0445 534.108C65.7605 534.108 64.7345 533.778 63.9665 533.118C63.2105 532.458 62.8325 531.414 62.8325 529.986ZM65.1725 529.986C65.1725 531.366 65.7965 532.056 67.0445 532.056C68.3045 532.056 68.9345 531.366 68.9345 529.986V524.964C68.9345 523.584 68.3045 522.894 67.0445 522.894C65.7965 522.894 65.1725 523.584 65.1725 524.964V529.986ZM73.2773 533.262V521.58C73.2773 521.34 73.3913 521.16 73.6193 521.04C73.8473 520.908 74.1233 520.842 74.4473 520.842C74.8793 520.842 75.2093 520.92 75.4373 521.076C75.6653 521.232 75.9173 521.568 76.1933 522.084L79.6673 528.798V521.562C79.6673 521.322 79.7813 521.142 80.0093 521.022C80.2373 520.902 80.5133 520.842 80.8373 520.842C81.1613 520.842 81.4373 520.902 81.6653 521.022C81.8933 521.142 82.0073 521.322 82.0073 521.562V533.262C82.0073 533.49 81.8873 533.67 81.6473 533.802C81.4193 533.934 81.1493 534 80.8373 534C80.2013 534 79.7513 533.754 79.4873 533.262L75.6173 526.026V533.262C75.6173 533.49 75.4973 533.67 75.2573 533.802C75.0293 533.934 74.7593 534 74.4473 534C74.1233 534 73.8473 533.934 73.6193 533.802C73.3913 533.67 73.2773 533.49 73.2773 533.262ZM83.3117 521.886C83.3117 521.61 83.3717 521.37 83.4917 521.166C83.6237 520.95 83.8097 520.842 84.0497 520.842H91.6637C91.9037 520.842 92.0837 520.95 92.2037 521.166C92.3357 521.37 92.4017 521.61 92.4017 521.886C92.4017 522.174 92.3357 522.426 92.2037 522.642C92.0717 522.846 91.8917 522.948 91.6637 522.948H89.0357V533.262C89.0357 533.49 88.9157 533.67 88.6757 533.802C88.4477 533.934 88.1777 534 87.8657 534C87.5417 534 87.2657 533.934 87.0377 533.802C86.8097 533.67 86.6957 533.49 86.6957 533.262V522.948H84.0497C83.8217 522.948 83.6417 522.846 83.5097 522.642C83.3777 522.438 83.3117 522.186 83.3117 521.886ZM91.7304 533.028C91.7304 533.004 91.7424 532.944 91.7664 532.848L95.2404 521.526C95.3124 521.274 95.4864 521.082 95.7624 520.95C96.0504 520.806 96.3744 520.734 96.7344 520.734C97.0944 520.734 97.4184 520.806 97.7064 520.95C97.9944 521.082 98.1744 521.274 98.2464 521.526L101.72 532.848C101.744 532.944 101.756 533.004 101.756 533.028C101.756 533.292 101.594 533.52 101.27 533.712C100.946 533.904 100.616 534 100.28 534C99.8364 534 99.5724 533.844 99.4884 533.532L98.8044 531.138H94.6824L93.9984 533.532C93.9144 533.844 93.6504 534 93.2064 534C92.8584 534 92.5224 533.91 92.1984 533.73C91.8864 533.538 91.7304 533.304 91.7304 533.028ZM95.1684 529.302H98.3004L96.7344 523.776L95.1684 529.302ZM95.4384 518.52C95.4384 518.256 95.5404 518.07 95.7444 517.962L98.1204 516.81C98.2404 516.786 98.3184 516.774 98.3544 516.774C98.5464 516.774 98.7144 516.87 98.8584 517.062C99.0024 517.242 99.0744 517.44 99.0744 517.656C99.0744 517.92 98.9664 518.1 98.7504 518.196L96.4104 519.33C96.2904 519.378 96.2064 519.402 96.1584 519.402C95.9664 519.402 95.7984 519.306 95.6544 519.114C95.5104 518.922 95.4384 518.724 95.4384 518.52ZM102.876 529.986V524.964C102.876 523.548 103.26 522.51 104.028 521.85C104.796 521.178 105.798 520.842 107.034 520.842C108.294 520.842 109.32 521.154 110.112 521.778C110.916 522.402 111.318 523.23 111.318 524.262C111.318 524.706 111.228 525.012 111.048 525.18C110.868 525.336 110.568 525.414 110.148 525.414C109.38 525.414 108.99 525.168 108.978 524.676C108.966 524.52 108.948 524.388 108.924 524.28C108.912 524.16 108.864 524.01 108.78 523.83C108.708 523.638 108.612 523.482 108.492 523.362C108.372 523.23 108.192 523.122 107.952 523.038C107.712 522.942 107.43 522.894 107.106 522.894C105.846 522.894 105.216 523.584 105.216 524.964V529.986C105.216 531.366 105.858 532.056 107.142 532.056C107.526 532.056 107.844 531.996 108.096 531.876C108.36 531.756 108.546 531.588 108.654 531.372C108.774 531.144 108.852 530.946 108.888 530.778C108.936 530.598 108.966 530.382 108.978 530.13C109.014 529.638 109.398 529.392 110.13 529.392C110.55 529.392 110.85 529.476 111.03 529.644C111.222 529.8 111.318 530.1 111.318 530.544C111.318 531.624 110.916 532.488 110.112 533.136C109.32 533.784 108.288 534.108 107.016 534.108C105.78 534.108 104.778 533.778 104.01 533.118C103.254 532.446 102.876 531.402 102.876 529.986ZM112.034 521.886C112.034 521.61 112.094 521.37 112.214 521.166C112.346 520.95 112.532 520.842 112.772 520.842H120.386C120.626 520.842 120.806 520.95 120.926 521.166C121.058 521.37 121.124 521.61 121.124 521.886C121.124 522.174 121.058 522.426 120.926 522.642C120.794 522.846 120.614 522.948 120.386 522.948H117.758V533.262C117.758 533.49 117.638 533.67 117.398 533.802C117.17 533.934 116.9 534 116.588 534C116.264 534 115.988 533.934 115.76 533.802C115.532 533.67 115.418 533.49 115.418 533.262V522.948H112.772C112.544 522.948 112.364 522.846 112.232 522.642C112.1 522.438 112.034 522.186 112.034 521.886ZM122.053 529.986V524.964C122.053 523.536 122.431 522.492 123.187 521.832C123.955 521.172 124.981 520.842 126.265 520.842C127.549 520.842 128.575 521.172 129.343 521.832C130.111 522.492 130.495 523.536 130.495 524.964V529.986C130.495 531.414 130.111 532.458 129.343 533.118C128.575 533.778 127.549 534.108 126.265 534.108C124.981 534.108 123.955 533.778 123.187 533.118C122.431 532.458 122.053 531.414 122.053 529.986ZM124.393 529.986C124.393 531.366 125.017 532.056 126.265 532.056C127.525 532.056 128.155 531.366 128.155 529.986V524.964C128.155 523.584 127.525 522.894 126.265 522.894C125.017 522.894 124.393 523.584 124.393 524.964V529.986Z" fill="white"/>
<path opacity="0.5" d="M52.216 583.886C52.216 583.61 52.276 583.37 52.396 583.166C52.528 582.95 52.714 582.842 52.954 582.842H60.568C60.808 582.842 60.988 582.95 61.108 583.166C61.24 583.37 61.306 583.61 61.306 583.886C61.306 584.174 61.24 584.426 61.108 584.642C60.976 584.846 60.796 584.948 60.568 584.948H57.94V595.262C57.94 595.49 57.82 595.67 57.58 595.802C57.352 595.934 57.082 596 56.77 596C56.446 596 56.17 595.934 55.942 595.802C55.714 595.67 55.6 595.49 55.6 595.262V584.948H52.954C52.726 584.948 52.546 584.846 52.414 584.642C52.282 584.438 52.216 584.186 52.216 583.886ZM62.5898 595.262V583.58C62.5898 583.352 62.6918 583.172 62.8958 583.04C63.0998 582.908 63.3398 582.842 63.6158 582.842H70.0238C70.2638 582.842 70.4438 582.944 70.5638 583.148C70.6958 583.352 70.7618 583.586 70.7618 583.85C70.7618 584.138 70.6958 584.384 70.5638 584.588C70.4318 584.792 70.2518 584.894 70.0238 584.894H64.9298V588.494H67.6658C67.8938 588.494 68.0738 588.59 68.2058 588.782C68.3378 588.962 68.4038 589.178 68.4038 589.43C68.4038 589.658 68.3378 589.868 68.2058 590.06C68.0858 590.24 67.9058 590.33 67.6658 590.33H64.9298V593.948H70.0238C70.2518 593.948 70.4318 594.05 70.5638 594.254C70.6958 594.458 70.7618 594.704 70.7618 594.992C70.7618 595.256 70.6958 595.49 70.5638 595.694C70.4438 595.898 70.2638 596 70.0238 596H63.6158C63.3398 596 63.0998 595.934 62.8958 595.802C62.6918 595.67 62.5898 595.49 62.5898 595.262ZM65.1998 580.52C65.1998 580.256 65.3018 580.07 65.5058 579.962L67.8818 578.81C68.0018 578.786 68.0798 578.774 68.1158 578.774C68.3078 578.774 68.4758 578.87 68.6198 579.062C68.7638 579.242 68.8358 579.44 68.8358 579.656C68.8358 579.92 68.7278 580.1 68.5118 580.196L66.1718 581.33C66.0518 581.378 65.9678 581.402 65.9198 581.402C65.7278 581.402 65.5598 581.306 65.4158 581.114C65.2718 580.922 65.1998 580.724 65.1998 580.52ZM72.1171 595.262V583.562C72.1171 583.37 72.1891 583.202 72.3331 583.058C72.4771 582.914 72.6571 582.842 72.8731 582.842H76.4371C79.2811 582.842 80.7031 584.096 80.7031 586.604C80.7031 587.588 80.4871 588.38 80.0551 588.98C79.6351 589.58 79.0651 589.988 78.3451 590.204L80.7031 594.578C80.7631 594.65 80.7931 594.746 80.7931 594.866C80.7931 595.166 80.6371 595.448 80.3251 595.712C80.0131 595.964 79.6831 596.09 79.3351 596.09C78.9871 596.09 78.7171 595.904 78.5251 595.532L75.9691 590.564H74.4571V595.262C74.4571 595.49 74.3431 595.67 74.1151 595.802C73.8871 595.934 73.6111 596 73.2871 596C72.9751 596 72.6991 595.934 72.4591 595.802C72.2311 595.67 72.1171 595.49 72.1171 595.262ZM74.4571 588.728H76.4371C77.7211 588.728 78.3631 588.092 78.3631 586.82C78.3631 585.536 77.7211 584.894 76.4371 584.894H74.4571V588.728ZM82.3827 595.262V584.012C82.3827 583.616 82.4907 583.322 82.7067 583.13C82.9347 582.938 83.2167 582.842 83.5527 582.842C83.9967 582.842 84.3387 582.92 84.5787 583.076C84.8187 583.232 85.0827 583.568 85.3707 584.084L87.5847 588.116L89.7987 584.084C90.0867 583.568 90.3507 583.232 90.5907 583.076C90.8427 582.92 91.1907 582.842 91.6347 582.842C91.9707 582.842 92.2467 582.938 92.4627 583.13C92.6907 583.322 92.8047 583.616 92.8047 584.012V595.262C92.8047 595.49 92.6847 595.67 92.4447 595.802C92.2167 595.934 91.9467 596 91.6347 596C91.3107 596 91.0347 595.934 90.8067 595.802C90.5787 595.67 90.4647 595.49 90.4647 595.262V587.522L88.3587 591.266C88.1907 591.578 87.9267 591.734 87.5667 591.734C87.2187 591.734 86.9607 591.578 86.7927 591.266L84.7227 587.378V595.262C84.7227 595.49 84.6027 595.67 84.3627 595.802C84.1347 595.934 83.8647 596 83.5527 596C83.2287 596 82.9527 595.934 82.7247 595.802C82.4967 595.67 82.3827 595.49 82.3827 595.262ZM94.9687 595.262V583.562C94.9687 583.322 95.0827 583.142 95.3107 583.022C95.5387 582.902 95.8147 582.842 96.1387 582.842C96.4627 582.842 96.7387 582.902 96.9667 583.022C97.1947 583.142 97.3087 583.322 97.3087 583.562V595.262C97.3087 595.49 97.1887 595.67 96.9487 595.802C96.7207 595.934 96.4507 596 96.1387 596C95.8147 596 95.5387 595.934 95.3107 595.802C95.0827 595.67 94.9687 595.49 94.9687 595.262ZM99.4687 595.262V583.58C99.4687 583.34 99.5827 583.16 99.8107 583.04C100.039 582.908 100.315 582.842 100.639 582.842C101.071 582.842 101.401 582.92 101.629 583.076C101.857 583.232 102.109 583.568 102.385 584.084L105.859 590.798V583.562C105.859 583.322 105.973 583.142 106.201 583.022C106.429 582.902 106.705 582.842 107.029 582.842C107.353 582.842 107.629 582.902 107.857 583.022C108.085 583.142 108.199 583.322 108.199 583.562V595.262C108.199 595.49 108.079 595.67 107.839 595.802C107.611 595.934 107.341 596 107.029 596C106.393 596 105.943 595.754 105.679 595.262L101.809 588.026V595.262C101.809 595.49 101.689 595.67 101.449 595.802C101.221 595.934 100.951 596 100.639 596C100.315 596 100.039 595.934 99.8107 595.802C99.5827 595.67 99.4687 595.49 99.4687 595.262ZM110.223 591.986V586.964C110.223 585.536 110.601 584.492 111.357 583.832C112.125 583.172 113.151 582.842 114.435 582.842C115.719 582.842 116.745 583.172 117.513 583.832C118.281 584.492 118.665 585.536 118.665 586.964V591.986C118.665 593.414 118.281 594.458 117.513 595.118C116.745 595.778 115.719 596.108 114.435 596.108C113.151 596.108 112.125 595.778 111.357 595.118C110.601 594.458 110.223 593.414 110.223 591.986ZM112.563 591.986C112.563 593.366 113.187 594.056 114.435 594.056C115.695 594.056 116.325 593.366 116.325 591.986V586.964C116.325 585.584 115.695 584.894 114.435 584.894C113.187 584.894 112.563 585.584 112.563 586.964V591.986ZM120.02 593.93C120.02 593.654 120.122 593.378 120.326 593.102C120.542 592.814 120.782 592.67 121.046 592.67C121.202 592.67 121.376 592.742 121.568 592.886C121.772 593.03 121.964 593.192 122.144 593.372C122.336 593.54 122.606 593.696 122.954 593.84C123.302 593.984 123.686 594.056 124.106 594.056C124.682 594.056 125.162 593.924 125.546 593.66C125.93 593.396 126.122 593.006 126.122 592.49C126.122 592.13 126.014 591.812 125.798 591.536C125.594 591.248 125.318 591.014 124.97 590.834C124.634 590.642 124.262 590.462 123.854 590.294C123.446 590.114 123.032 589.916 122.612 589.7C122.204 589.484 121.826 589.244 121.478 588.98C121.142 588.704 120.866 588.344 120.65 587.9C120.446 587.444 120.344 586.928 120.344 586.352C120.344 585.716 120.47 585.158 120.722 584.678C120.986 584.186 121.334 583.808 121.766 583.544C122.198 583.268 122.66 583.07 123.152 582.95C123.644 582.818 124.166 582.752 124.718 582.752C125.03 582.752 125.36 582.776 125.708 582.824C126.056 582.86 126.422 582.926 126.806 583.022C127.202 583.118 127.52 583.268 127.76 583.472C128.012 583.676 128.138 583.916 128.138 584.192C128.138 584.456 128.054 584.732 127.886 585.02C127.718 585.296 127.49 585.434 127.202 585.434C127.094 585.434 126.8 585.32 126.32 585.092C125.84 584.864 125.306 584.75 124.718 584.75C124.07 584.75 123.566 584.876 123.206 585.128C122.858 585.368 122.684 585.704 122.684 586.136C122.684 586.484 122.828 586.79 123.116 587.054C123.404 587.306 123.758 587.516 124.178 587.684C124.61 587.84 125.072 588.044 125.564 588.296C126.068 588.536 126.53 588.8 126.95 589.088C127.382 589.376 127.742 589.796 128.03 590.348C128.318 590.888 128.462 591.524 128.462 592.256C128.462 593.504 128.066 594.47 127.274 595.154C126.494 595.826 125.462 596.162 124.178 596.162C123.038 596.162 122.06 595.928 121.244 595.46C120.428 594.992 120.02 594.482 120.02 593.93ZM132.758 583.814C132.758 583.55 132.926 583.322 133.262 583.13C133.61 582.938 133.958 582.842 134.306 582.842C134.63 582.842 134.87 582.998 135.026 583.31L137.762 588.512L140.516 583.31C140.684 582.998 140.918 582.842 141.218 582.842C141.566 582.842 141.908 582.938 142.244 583.13C142.592 583.322 142.766 583.55 142.766 583.814C142.766 583.91 142.748 583.988 142.712 584.048L139.004 590.492C138.956 590.564 138.932 590.642 138.932 590.726V595.262C138.932 595.49 138.818 595.67 138.59 595.802C138.362 595.934 138.086 596 137.762 596C137.45 596 137.174 595.934 136.934 595.802C136.706 595.67 136.592 595.49 136.592 595.262V590.726C136.592 590.618 136.574 590.54 136.538 590.492L132.812 584.048C132.776 583.952 132.758 583.874 132.758 583.814ZM147.489 591.986V586.964C147.489 585.548 147.873 584.51 148.641 583.85C149.409 583.178 150.411 582.842 151.647 582.842C152.907 582.842 153.933 583.154 154.725 583.778C155.529 584.402 155.931 585.23 155.931 586.262C155.931 586.706 155.841 587.012 155.661 587.18C155.481 587.336 155.181 587.414 154.761 587.414C153.993 587.414 153.603 587.168 153.591 586.676C153.579 586.52 153.561 586.388 153.537 586.28C153.525 586.16 153.477 586.01 153.393 585.83C153.321 585.638 153.225 585.482 153.105 585.362C152.985 585.23 152.805 585.122 152.565 585.038C152.325 584.942 152.043 584.894 151.719 584.894C150.459 584.894 149.829 585.584 149.829 586.964V591.986C149.829 593.366 150.471 594.056 151.755 594.056C152.139 594.056 152.457 593.996 152.709 593.876C152.973 593.756 153.159 593.588 153.267 593.372C153.387 593.144 153.465 592.946 153.501 592.778C153.549 592.598 153.579 592.382 153.591 592.13C153.627 591.638 154.011 591.392 154.743 591.392C155.163 591.392 155.463 591.476 155.643 591.644C155.835 591.8 155.931 592.1 155.931 592.544C155.931 593.624 155.529 594.488 154.725 595.136C153.933 595.784 152.901 596.108 151.629 596.108C150.393 596.108 149.391 595.778 148.623 595.118C147.867 594.446 147.489 593.402 147.489 591.986ZM157.368 591.986V586.964C157.368 585.536 157.746 584.492 158.502 583.832C159.27 583.172 160.296 582.842 161.58 582.842C162.864 582.842 163.89 583.172 164.658 583.832C165.426 584.492 165.81 585.536 165.81 586.964V591.986C165.81 593.414 165.426 594.458 164.658 595.118C163.89 595.778 162.864 596.108 161.58 596.108C160.296 596.108 159.27 595.778 158.502 595.118C157.746 594.458 157.368 593.414 157.368 591.986ZM159.708 591.986C159.708 593.366 160.332 594.056 161.58 594.056C162.84 594.056 163.47 593.366 163.47 591.986V586.964C163.47 585.584 162.84 584.894 161.58 584.894C160.332 584.894 159.708 585.584 159.708 586.964V591.986ZM167.812 595.262V583.58C167.812 583.34 167.926 583.16 168.154 583.04C168.382 582.908 168.658 582.842 168.982 582.842C169.414 582.842 169.744 582.92 169.972 583.076C170.2 583.232 170.452 583.568 170.728 584.084L174.202 590.798V583.562C174.202 583.322 174.316 583.142 174.544 583.022C174.772 582.902 175.048 582.842 175.372 582.842C175.696 582.842 175.972 582.902 176.2 583.022C176.428 583.142 176.542 583.322 176.542 583.562V595.262C176.542 595.49 176.422 595.67 176.182 595.802C175.954 595.934 175.684 596 175.372 596C174.736 596 174.286 595.754 174.022 595.262L170.152 588.026V595.262C170.152 595.49 170.032 595.67 169.792 595.802C169.564 595.934 169.294 596 168.982 596C168.658 596 168.382 595.934 168.154 595.802C167.926 595.67 167.812 595.49 167.812 595.262ZM178.711 595.28V583.562C178.711 583.37 178.807 583.202 178.999 583.058C179.191 582.914 179.437 582.842 179.737 582.842H182.923C184.207 582.842 185.233 583.172 186.001 583.832C186.769 584.492 187.153 585.536 187.153 586.964V591.878C187.153 593.306 186.769 594.35 186.001 595.01C185.233 595.67 184.207 596 182.923 596H179.737C179.437 596 179.191 595.928 178.999 595.784C178.807 595.64 178.711 595.472 178.711 595.28ZM181.051 593.948H182.923C184.183 593.948 184.813 593.258 184.813 591.878V586.964C184.813 585.584 184.183 584.894 182.923 584.894H181.051V593.948ZM189.152 595.262V583.562C189.152 583.322 189.266 583.142 189.494 583.022C189.722 582.902 189.998 582.842 190.322 582.842C190.646 582.842 190.922 582.902 191.15 583.022C191.378 583.142 191.492 583.322 191.492 583.562V595.262C191.492 595.49 191.372 595.67 191.132 595.802C190.904 595.934 190.634 596 190.322 596C189.998 596 189.722 595.934 189.494 595.802C189.266 595.67 189.152 595.49 189.152 595.262ZM193.526 591.986V586.964C193.526 585.548 193.91 584.51 194.678 583.85C195.446 583.178 196.448 582.842 197.684 582.842C198.944 582.842 199.97 583.154 200.762 583.778C201.566 584.402 201.968 585.23 201.968 586.262C201.968 586.706 201.878 587.012 201.698 587.18C201.518 587.336 201.218 587.414 200.798 587.414C200.03 587.414 199.64 587.168 199.628 586.676C199.616 586.52 199.598 586.388 199.574 586.28C199.562 586.16 199.514 586.01 199.43 585.83C199.358 585.638 199.262 585.482 199.142 585.362C199.022 585.23 198.842 585.122 198.602 585.038C198.362 584.942 198.08 584.894 197.756 584.894C196.496 584.894 195.866 585.584 195.866 586.964V591.986C195.866 593.366 196.508 594.056 197.792 594.056C198.176 594.056 198.494 593.996 198.746 593.876C199.01 593.756 199.196 593.588 199.304 593.372C199.424 593.144 199.502 592.946 199.538 592.778C199.586 592.598 199.616 592.382 199.628 592.13C199.664 591.638 200.048 591.392 200.78 591.392C201.2 591.392 201.5 591.476 201.68 591.644C201.872 591.8 201.968 592.1 201.968 592.544C201.968 593.624 201.566 594.488 200.762 595.136C199.97 595.784 198.938 596.108 197.666 596.108C196.43 596.108 195.428 595.778 194.66 595.118C193.904 594.446 193.526 593.402 193.526 591.986ZM203.549 595.262V583.562C203.549 583.322 203.663 583.142 203.891 583.022C204.119 582.902 204.395 582.842 204.719 582.842C205.043 582.842 205.319 582.902 205.547 583.022C205.775 583.142 205.889 583.322 205.889 583.562V595.262C205.889 595.49 205.769 595.67 205.529 595.802C205.301 595.934 205.031 596 204.719 596C204.395 596 204.119 595.934 203.891 595.802C203.663 595.67 203.549 595.49 203.549 595.262ZM207.905 591.986V586.964C207.905 585.536 208.283 584.492 209.039 583.832C209.807 583.172 210.833 582.842 212.117 582.842C213.401 582.842 214.427 583.172 215.195 583.832C215.963 584.492 216.347 585.536 216.347 586.964V591.986C216.347 593.414 215.963 594.458 215.195 595.118C214.427 595.778 213.401 596.108 212.117 596.108C210.833 596.108 209.807 595.778 209.039 595.118C208.283 594.458 207.905 593.414 207.905 591.986ZM210.245 591.986C210.245 593.366 210.869 594.056 212.117 594.056C213.377 594.056 214.007 593.366 214.007 591.986V586.964C214.007 585.584 213.377 584.894 212.117 584.894C210.869 584.894 210.245 585.584 210.245 586.964V591.986ZM218.35 595.262V583.58C218.35 583.34 218.464 583.16 218.692 583.04C218.92 582.908 219.196 582.842 219.52 582.842C219.952 582.842 220.282 582.92 220.51 583.076C220.738 583.232 220.99 583.568 221.266 584.084L224.74 590.798V583.562C224.74 583.322 224.854 583.142 225.082 583.022C225.31 582.902 225.586 582.842 225.91 582.842C226.234 582.842 226.51 582.902 226.738 583.022C226.966 583.142 227.08 583.322 227.08 583.562V595.262C227.08 595.49 226.96 595.67 226.72 595.802C226.492 595.934 226.222 596 225.91 596C225.274 596 224.824 595.754 224.56 595.262L220.69 588.026V595.262C220.69 595.49 220.57 595.67 220.33 595.802C220.102 595.934 219.832 596 219.52 596C219.196 596 218.92 595.934 218.692 595.802C218.464 595.67 218.35 595.49 218.35 595.262ZM229.248 595.262V583.58C229.248 583.352 229.35 583.172 229.554 583.04C229.758 582.908 229.998 582.842 230.274 582.842H236.682C236.922 582.842 237.102 582.944 237.222 583.148C237.354 583.352 237.42 583.586 237.42 583.85C237.42 584.138 237.354 584.384 237.222 584.588C237.09 584.792 236.91 584.894 236.682 584.894H231.588V588.494H234.324C234.552 588.494 234.732 588.59 234.864 588.782C234.996 588.962 235.062 589.178 235.062 589.43C235.062 589.658 234.996 589.868 234.864 590.06C234.744 590.24 234.564 590.33 234.324 590.33H231.588V593.948H236.682C236.91 593.948 237.09 594.05 237.222 594.254C237.354 594.458 237.42 594.704 237.42 594.992C237.42 595.256 237.354 595.49 237.222 595.694C237.102 595.898 236.922 596 236.682 596H230.274C229.998 596 229.758 595.934 229.554 595.802C229.35 595.67 229.248 595.49 229.248 595.262ZM238.145 593.93C238.145 593.654 238.247 593.378 238.451 593.102C238.667 592.814 238.907 592.67 239.171 592.67C239.327 592.67 239.501 592.742 239.693 592.886C239.897 593.03 240.089 593.192 240.269 593.372C240.461 593.54 240.731 593.696 241.079 593.84C241.427 593.984 241.811 594.056 242.231 594.056C242.807 594.056 243.287 593.924 243.671 593.66C244.055 593.396 244.247 593.006 244.247 592.49C244.247 592.13 244.139 591.812 243.923 591.536C243.719 591.248 243.443 591.014 243.095 590.834C242.759 590.642 242.387 590.462 241.979 590.294C241.571 590.114 241.157 589.916 240.737 589.7C240.329 589.484 239.951 589.244 239.603 588.98C239.267 588.704 238.991 588.344 238.775 587.9C238.571 587.444 238.469 586.928 238.469 586.352C238.469 585.716 238.595 585.158 238.847 584.678C239.111 584.186 239.459 583.808 239.891 583.544C240.323 583.268 240.785 583.07 241.277 582.95C241.769 582.818 242.291 582.752 242.843 582.752C243.155 582.752 243.485 582.776 243.833 582.824C244.181 582.86 244.547 582.926 244.931 583.022C245.327 583.118 245.645 583.268 245.885 583.472C246.137 583.676 246.263 583.916 246.263 584.192C246.263 584.456 246.179 584.732 246.011 585.02C245.843 585.296 245.615 585.434 245.327 585.434C245.219 585.434 244.925 585.32 244.445 585.092C243.965 584.864 243.431 584.75 242.843 584.75C242.195 584.75 241.691 584.876 241.331 585.128C240.983 585.368 240.809 585.704 240.809 586.136C240.809 586.484 240.953 586.79 241.241 587.054C241.529 587.306 241.883 587.516 242.303 587.684C242.735 587.84 243.197 588.044 243.689 588.296C244.193 588.536 244.655 588.8 245.075 589.088C245.507 589.376 245.867 589.796 246.155 590.348C246.443 590.888 246.587 591.524 246.587 592.256C246.587 593.504 246.191 594.47 245.399 595.154C244.619 595.826 243.587 596.162 242.303 596.162C241.163 596.162 240.185 595.928 239.369 595.46C238.553 594.992 238.145 594.482 238.145 593.93Z" fill="white"/>
<path d="M341.165 35.671C340.95 35.8903 340.681 36 340.385 36C340.09 36 339.821 35.8903 339.606 35.671L332.349 28.2677C332.296 28.2129 332.242 28.1581 332.215 28.1032C332.215 28.1032 332.188 28.0758 332.188 28.0484C332.161 27.9935 332.134 27.9387 332.108 27.9113C332.108 27.8839 332.108 27.8565 332.081 27.8565C332.054 27.8016 332.054 27.7742 332.027 27.7194C332 27.6371 332 27.5823 332 27.5C332 27.4177 332 27.3629 332.027 27.2806C332.027 27.2258 332.054 27.171 332.081 27.1435C332.081 27.1161 332.081 27.0887 332.108 27.0887C332.134 27.0339 332.161 26.979 332.188 26.9242C332.188 26.9242 332.188 26.8968 332.215 26.8968C332.242 26.8419 332.296 26.7871 332.349 26.7323L339.606 19.329C340.036 18.8903 340.735 18.8903 341.165 19.329C341.595 19.7677 341.595 20.4806 341.165 20.9194L335.789 26.4032H354.898C355.516 26.4032 356 26.8968 356 27.5274C356 28.1581 355.516 28.6516 354.898 28.6516H335.789L341.165 34.1355C341.595 34.5194 341.595 35.2323 341.165 35.671Z" fill="white"/>
<path opacity="0.57" fill-rule="evenodd" clip-rule="evenodd" d="M239.469 -52V119.956L48 -52V20.5237L287.314 235.176V234.832V234.458V-52H239.469Z" fill="#3B2059"/>
<path d="M142 202.2V69.8C142 67.9333 142.667 66.3333 144 65C145.333 63.6667 147 63 149 63H187C217.667 63 233 76.6 233 103.8C233 115.133 230.467 124.067 225.4 130.6C220.333 137 213.467 141.267 204.8 143.4L232.8 196C233.333 196.933 233.6 197.933 233.6 199C233.6 201.667 232.2 204.133 229.4 206.4C226.733 208.667 223.867 209.8 220.8 209.8C217.333 209.8 214.533 207.733 212.4 203.6L183.2 146.4H163V202.2C163 204.333 161.933 206.067 159.8 207.4C157.8 208.6 155.333 209.2 152.4 209.2C149.6 209.2 147.133 208.6 145 207.4C143 206.067 142 204.333 142 202.2ZM163 129.4H187C203.533 129.4 211.8 121.467 211.8 105.6C211.8 89.7333 203.533 81.8 187 81.8H163V129.4Z" fill="white"/>
</g>
<defs>
<clipPath id="clip0">
<rect width="375" height="812" fill="white"/>
</clipPath>
</defs>
</svg>